<svg xmlns="http://www.w3.org/2000/svg" width="440.72" height="440.7" viewBox="0 0 440.72 440.7">
  <g id="Smart_home-pana_1_" data-name="Smart home-pana (1)" transform="translate(-29.64 -40.45)">
    <g id="freepik--background-complete--inject-8">
      <rect id="Rectangle_1" data-name="Rectangle 1" width="16.13" height="115.34" transform="translate(50.3 325.53)" fill="#e0e0e0"/>
      <rect id="Rectangle_2" data-name="Rectangle 2" width="16.13" height="115.34" transform="translate(76.23 325.53)" fill="#e0e0e0"/>
      <rect id="Rectangle_3" data-name="Rectangle 3" width="16.13" height="115.34" transform="translate(102.16 325.53)" fill="#e0e0e0"/>
      <rect id="Rectangle_4" data-name="Rectangle 4" width="16.13" height="115.34" transform="translate(128.08 325.53)" fill="#e0e0e0"/>
      <rect id="Rectangle_5" data-name="Rectangle 5" width="16.13" height="115.34" transform="translate(154.01 325.53)" fill="#e0e0e0"/>
      <rect id="Rectangle_6" data-name="Rectangle 6" width="16.13" height="115.34" transform="translate(179.93 325.53)" fill="#e0e0e0"/>
      <rect id="Rectangle_7" data-name="Rectangle 7" width="16.13" height="115.34" transform="translate(205.86 325.53)" fill="#e0e0e0"/>
      <rect id="Rectangle_8" data-name="Rectangle 8" width="179.18" height="6.18" rx="1.42" transform="translate(40.51 338.57)" fill="#e0e0e0"/>
      <rect id="Rectangle_9" data-name="Rectangle 9" width="179.18" height="6.18" rx="1.42" transform="translate(40.51 426.99)" fill="#e0e0e0"/>
      <rect id="Rectangle_10" data-name="Rectangle 10" width="60.02" height="62.56" transform="translate(366.86 147.8)" fill="#e0e0e0"/>
      <rect id="Rectangle_11" data-name="Rectangle 11" width="60.02" height="62.56" transform="translate(362.79 147.8)" fill="#fafafa"/>
      <path id="Path_1" data-name="Path 1" d="M422.83,210.38H362.77v-62.6h60.06Zm-60,0h60V147.82h-60Z" fill="#e0e0e0"/>
      <rect id="Rectangle_12" data-name="Rectangle 12" width="43.88" height="45.74" transform="translate(370.86 156.21)" fill="#fafafa"/>
      <path id="Path_2" data-name="Path 2" d="M370.86,202.26a7.4,7.4,0,0,1-1.08,1.26c-.7.74-1.69,1.74-2.79,2.83s-2.12,2.05-2.87,2.74a6.849,6.849,0,0,1-1.27,1.06,6.859,6.859,0,0,1,1.08-1.26c.7-.74,1.69-1.74,2.8-2.83s2.12-2.06,2.87-2.75A7.051,7.051,0,0,1,370.86,202.26Z" fill="#e0e0e0"/>
      <path id="Path_3" data-name="Path 3" d="M414.74,202.15a6.86,6.86,0,0,1,1.26,1.08c.74.7,1.74,1.69,2.83,2.79s2.06,2.12,2.74,2.87a7,7,0,0,1,1.06,1.26,6.67,6.67,0,0,1-1.25-1.07c-.74-.7-1.75-1.69-2.84-2.8s-2.06-2.12-2.75-2.87a7.659,7.659,0,0,1-1.05-1.26Z" fill="#e0e0e0"/>
      <path id="Path_4" data-name="Path 4" d="M414.62,156.33a7,7,0,0,1,1.09-1.25c.7-.74,1.68-1.75,2.78-2.83s2.12-2.06,2.87-2.75a7,7,0,0,1,1.27-1.05,7.491,7.491,0,0,1-1.08,1.25c-.7.74-1.69,1.74-2.79,2.83s-2.13,2.07-2.88,2.75a5.891,5.891,0,0,1-1.26,1.05Z" fill="#e0e0e0"/>
      <path id="Path_5" data-name="Path 5" d="M370.74,156.45a7.84,7.84,0,0,1-1.26-1.09c-.74-.7-1.74-1.68-2.83-2.79s-2-2.11-2.74-2.86a6.85,6.85,0,0,1-1.06-1.27,6.859,6.859,0,0,1,1.26,1.08c.74.7,1.74,1.68,2.83,2.79s2.06,2.13,2.75,2.87A6.5,6.5,0,0,1,370.74,156.45Z" fill="#e0e0e0"/>
      <path id="Path_6" data-name="Path 6" d="M414.62,202V189.34c0-8-.05-19.42-.09-33.09l.17.17H370.94l.19-.2v45.75l-.17-.17,31.69.08h11.86a.669.669,0,0,1,.21,0H402.75l-31.79.08h-.17V156h44.12v.17c0,13.71-.06,25.16-.08,33.2v12.34a.67.67,0,0,1-.21.29Z" fill="#e0e0e0"/>
      <rect id="Rectangle_13" data-name="Rectangle 13" width="14.64" height="14.64" transform="translate(385.48 171.76)" fill="#ebebeb"/>
      <rect id="Rectangle_14" data-name="Rectangle 14" width="127.52" height="229.07" transform="translate(58.01 62.99)" fill="#ebebeb"/>
      <rect id="Rectangle_15" data-name="Rectangle 15" width="116.01" height="215.61" transform="translate(63.11 69.64)" fill="#fafafa"/>
      <path id="Path_7" data-name="Path 7" d="M190.92,294.13l-5.39-2.06V59.11h5.39Z" fill="#e0e0e0"/>
      <path id="Path_8" data-name="Path 8" d="M91.55,208.91l30.13-28c3.82-3.55,8.81-7.37,13.72-5.62,2.36.84,4.13,2.86,6.45,3.82,4.62,1.93,9.91-.85,13.46-4.38s6.37-7.95,10.68-10.51,11-2.23,13.13,2.3V197l-43.79,18.75Z" fill="#f5f5f5"/>
      <path id="Path_9" data-name="Path 9" d="M63.11,191.39c11.1-4.52,22.18-.68,30.13,8.3,1.67,1.88,3.19,4.07,5.49,5.11,3.11,1.41,6.71.35,10.1,0a25.42,25.42,0,0,1,23.9,11.58l-37.07,18.2-32.55-.23Z" fill="#e0e0e0"/>
      <path id="Path_10" data-name="Path 10" d="M179.12,191.54c-7.31-3.53-13.75.74-20.5,5.26s-13,10.32-20.92,12.14c-5.29,1.22-11,.54-16.07,2.36-10.41,3.71-16.43,16.93-27.47,17.56-6,.35-11.37-3.29-16.72-6s-9.56-5.31-14.33-1.67v64.06h116Z" fill="#ebebeb"/>
      <rect id="Rectangle_16" data-name="Rectangle 16" width="118.53" height="2.3" transform="translate(63.11 131.66)" fill="#e0e0e0"/>
      <rect id="Rectangle_17" data-name="Rectangle 17" width="118.53" height="2.3" transform="translate(63.11 183)" fill="#e0e0e0"/>
      <rect id="Rectangle_18" data-name="Rectangle 18" width="118.53" height="2.3" transform="translate(63.11 234.35)" fill="#e0e0e0"/>
      <rect id="Rectangle_19" data-name="Rectangle 19" width="158.55" height="5.86" transform="translate(118.18 291.36) rotate(-90)" fill="#e0e0e0"/>
      <rect id="Rectangle_20" data-name="Rectangle 20" width="2.66" height="63.17" transform="translate(85.45 69.64)" fill="#e0e0e0"/>
      <rect id="Rectangle_21" data-name="Rectangle 21" width="2.66" height="63.17" transform="translate(108.35 69.64)" fill="#e0e0e0"/>
      <rect id="Rectangle_22" data-name="Rectangle 22" width="2.66" height="63.17" transform="translate(131.25 69.64)" fill="#e0e0e0"/>
      <rect id="Rectangle_23" data-name="Rectangle 23" width="2.66" height="63.17" transform="translate(154.15 69.64)" fill="#e0e0e0"/>
      <rect id="Rectangle_24" data-name="Rectangle 24" width="5.39" height="234.38" transform="translate(52.62 59.11)" fill="#e0e0e0"/>
      <rect id="Rectangle_25" data-name="Rectangle 25" width="138.3" height="6.25" transform="translate(52.62 56.74)" fill="#e0e0e0"/>
      <rect id="Rectangle_26" data-name="Rectangle 26" width="145.78" height="5.82" transform="translate(48.79 294.9)" fill="#e0e0e0"/>
      <path id="Path_11" data-name="Path 11" d="M185.53,292.07l9.04,2.83H48.79l9.22-2.83Z" fill="#ebebeb"/>
      <rect id="Rectangle_27" data-name="Rectangle 27" width="7.61" height="37.85" transform="matrix(1, -0.005, 0.005, 1, 413.944, 64.259)" fill="#e0e0e0"/>
      <rect id="Rectangle_28" data-name="Rectangle 28" width="19.7" height="20.9" transform="matrix(1, -0.005, 0.005, 1, 348.035, 64.426)" fill="#ebebeb"/>
      <rect id="Rectangle_29" data-name="Rectangle 29" width="19.7" height="20.9" transform="matrix(1, -0.005, 0.005, 1, 367.654, 64.32)" fill="#f5f5f5"/>
      <path id="Path_12" data-name="Path 12" d="M348.07,70.21q19.64.17,39.3-.18a.21.21,0,0,0,0-.41c-13.09-.08-26.22,0-39.31.24a.18.18,0,0,0,0,.35Z" fill="#e0e0e0"/>
      <rect id="Rectangle_30" data-name="Rectangle 30" width="35.79" height="17.03" transform="matrix(1, -0.005, 0.005, 1, 335.756, 85.062)" fill="#ebebeb"/>
      <rect id="Rectangle_31" data-name="Rectangle 31" width="35.79" height="17.03" transform="matrix(1, -0.005, 0.005, 1, 371.385, 84.87)" fill="#f5f5f5"/>
      <path id="Path_13" data-name="Path 13" d="M335.78,89.81c23.78.27,47.63,0,71.41-.35a.21.21,0,0,0,0-.42c-23.78-.12-47.64-.11-71.41.41a.18.18,0,0,0,0,.36Z" fill="#e0e0e0"/>
      <rect id="Rectangle_32" data-name="Rectangle 32" width="138.66" height="6.1" transform="translate(322.39 102.11)" fill="#e0e0e0"/>
      <rect id="Rectangle_33" data-name="Rectangle 33" width="5.63" height="20.82" transform="translate(345.1 105.04)" fill="#e0e0e0"/>
      <rect id="Rectangle_34" data-name="Rectangle 34" width="5.63" height="20.82" transform="translate(429.13 105.04)" fill="#e0e0e0"/>
      <rect id="Rectangle_35" data-name="Rectangle 35" width="7.61" height="52.06" transform="matrix(1, -0.005, 0.005, 1, 421.367, 50.139)" fill="#ebebeb"/>
      <rect id="Rectangle_36" data-name="Rectangle 36" width="11.82" height="42.19" transform="matrix(1, -0.005, 0.005, 1, 429.039, 59.868)" fill="#f5f5f5"/>
      <path id="Path_14" data-name="Path 14" d="M440.77,67.94a83.27,83.27,0,0,1-11.82,0,87.421,87.421,0,0,1,11.82,0Z" fill="#e0e0e0"/>
      <path id="Path_15" data-name="Path 15" d="M440.77,66.17a83.27,83.27,0,0,1-11.82,0,87.419,87.419,0,0,1,11.82,0Z" fill="#e0e0e0"/>
      <path id="Path_16" data-name="Path 16" d="M440.77,95.66a87.421,87.421,0,0,1-11.82,0,83.269,83.269,0,0,1,11.82,0Z" fill="#e0e0e0"/>
      <path id="Path_17" data-name="Path 17" d="M440.77,93.88a83.27,83.27,0,0,1-11.82,0A87.42,87.42,0,0,1,440.77,93.88Z" fill="#e0e0e0"/>
      <path id="Path_18" data-name="Path 18" d="M435.05,90c-.11,0-.2-4.26-.2-9.51s.09-9.51.2-9.51.21,4.26.21,9.51S435.17,90,435.05,90Z" fill="#e0e0e0"/>
      <rect id="Rectangle_37" data-name="Rectangle 37" width="12.87" height="31.84" transform="translate(440.9 70.18)" fill="#ebebeb"/>
      <path id="Path_19" data-name="Path 19" d="M427.24,59a2.19,2.19,0,1,1-2.19-2.18A2.19,2.19,0,0,1,427.24,59Z" fill="#e0e0e0"/>
      <rect id="Rectangle_38" data-name="Rectangle 38" width="1.35" height="30.97" transform="translate(424.38 65.03)" fill="#e0e0e0"/>
    </g>
    <g id="freepik--Screens--inject-8">
      <path id="Path_20" data-name="Path 20" d="M213.77,95.33H194.48a4.78,4.78,0,0,0-4.68,4.89v3.5a4.79,4.79,0,0,1-4.69,4.89H147.52a4.8,4.8,0,0,1-4.68-4.9v-3.5a4.8,4.8,0,0,0-4.68-4.9H114.5a15.17,15.17,0,0,0-15.19,15.17v243.4A15.16,15.16,0,0,0,114.43,369l99.27.06a15.18,15.18,0,0,0,15.18-15.17l.05-243.41a15.17,15.17,0,0,0-15.16-15.15Z" fill="#fff"/>
      <path id="Path_21" data-name="Path 21" d="M213.77,95.33h.52a12,12,0,0,1,1.53.12,14.34,14.34,0,0,1,5.7,2,14.63,14.63,0,0,1,3.46,2.8,15.26,15.26,0,0,1,2.89,4.53,15.8,15.8,0,0,1,1.14,6.16v7.16c0,20.22,0,49.47.05,85.62s0,79.19,0,127v22.74a16.17,16.17,0,0,1-.59,4.63,15.14,15.14,0,0,1-1.93,4.28,16.731,16.731,0,0,1-3.16,3.51,15.38,15.38,0,0,1-8.77,3.4c-3.18.09-6.34,0-9.54,0H115.58a16.12,16.12,0,0,1-9.88-2.73,15.58,15.58,0,0,1-6-8.31,16.9,16.9,0,0,1-.63-5.14V110.73a14.161,14.161,0,0,1,.08-1.84,13.707,13.707,0,0,1,.32-1.81,15.332,15.332,0,0,1,15.56-11.91h22.71a4.84,4.84,0,0,1,4.84,3.28,8,8,0,0,1,.31,3v1.48a9.941,9.941,0,0,0,.05,1.45,4.83,4.83,0,0,0,1.13,2.54,4.47,4.47,0,0,0,2.32,1.44,5.22,5.22,0,0,0,1.37.13h37.76a4.59,4.59,0,0,0,1.86-.65,4.87,4.87,0,0,0,2.13-3.06,8.13,8.13,0,0,0,.11-1.84v-1.82a10.45,10.45,0,0,1,.08-1.77,5,5,0,0,1,.57-1.62,4.85,4.85,0,0,1,2.42-2.15,7.69,7.69,0,0,1,3-.32h0a7.53,7.53,0,0,0-3,.32,4.69,4.69,0,0,0-2.34,2.09,4.79,4.79,0,0,0-.55,1.58,9.078,9.078,0,0,0-.07,1.74v1.82a9.131,9.131,0,0,1-.12,1.87,5,5,0,0,1-2.2,3.18,4.6,4.6,0,0,1-1.93.68c-.7.06-1.38,0-2.09,0h-35.7a5.34,5.34,0,0,1-1.43-.14,4.67,4.67,0,0,1-2.45-1.51,5.09,5.09,0,0,1-1.2-2.68,10.511,10.511,0,0,1,0-1.48v-1.48a8,8,0,0,0-.3-2.9,4.78,4.78,0,0,0-1.76-2.31,4.6,4.6,0,0,0-2.83-.78H115.11A15.13,15.13,0,0,0,103,100.8a15.3,15.3,0,0,0-3.12,6.3c-.15.58-.2,1.18-.3,1.77a10.874,10.874,0,0,0-.08,1.81V353.06a16.28,16.28,0,0,0,.62,5,15.07,15.07,0,0,0,5.84,8.07,15.64,15.64,0,0,0,9.64,2.66h89.52c3.19,0,6.38.05,9.52,0a15,15,0,0,0,8.53-3.31,16.63,16.63,0,0,0,3.08-3.41,15.05,15.05,0,0,0,1.88-4.17,15.62,15.62,0,0,0,.57-4.52V330.64c0-47.79.05-90.83.07-127s.07-65.4.09-85.62v-7.16a15.72,15.72,0,0,0-1.11-6.11,15,15,0,0,0-2.85-4.5,14.58,14.58,0,0,0-3.43-2.81,14.38,14.38,0,0,0-5.65-2,13.3,13.3,0,0,0-1.54-.15Z" fill="#263238"/>
      <path id="Path_22" data-name="Path 22" d="M216.7,119.91c0,.06-2.51.13-5.6.16s-5.6,0-5.6-.07,2.5-.14,5.6-.17S216.7,119.84,216.7,119.91Z" fill="#263238"/>
      <path id="Path_23" data-name="Path 23" d="M216.72,122.77c0,.07-2.5.14-5.6.17s-5.6,0-5.6-.08,2.51-.13,5.6-.16S216.72,122.71,216.72,122.77Z" fill="#263238"/>
      <path id="Path_24" data-name="Path 24" d="M216.75,125.64c0,.06-2.51.14-5.6.16s-5.61,0-5.61-.07,2.51-.14,5.6-.16S216.75,125.57,216.75,125.64Z" fill="#263238"/>
      <rect id="Rectangle_39" data-name="Rectangle 39" width="57.56" height="57.56" rx="4.6" transform="translate(105.19 171.33)" fill="#abce65"/>
      <path id="Path_25" data-name="Path 25" d="M157.52,158.94l-.73-1h-1.13v1h-.34v-3.23h1.21c.82,0,1.32.41,1.32,1.11a1,1,0,0,1-.74,1l.79,1.11Zm0-2.12c0-.52-.34-.82-1-.82h-.86v1.62h.86c.64,0,.98-.3.98-.8Z" fill="#263238"/>
      <path id="Path_26" data-name="Path 26" d="M158.34,157.72a1.24,1.24,0,1,1,1.23,1.24,1.19,1.19,0,0,1-1.23-1.24Zm2.13,0a.9.9,0,1,0-.9.95.88.88,0,0,0,.9-.95Z" fill="#263238"/>
      <path id="Path_27" data-name="Path 27" d="M161.23,157.72a1.24,1.24,0,1,1,1.23,1.24,1.19,1.19,0,0,1-1.23-1.24Zm2.13,0a.9.9,0,1,0-.9.95.88.88,0,0,0,.9-.95Z" fill="#263238"/>
      <path id="Path_28" data-name="Path 28" d="M168.36,157.53v1.41H168v-1.38c0-.51-.26-.77-.7-.77a.77.77,0,0,0-.81.87v1.28h-.33v-1.38c0-.51-.25-.77-.7-.77a.78.78,0,0,0-.81.87v1.28h-.33v-2.43h.32V157a1,1,0,0,1,.89-.46.87.87,0,0,1,.86.51,1.06,1.06,0,0,1,1-.51.91.91,0,0,1,.97.99Z" fill="#263238"/>
      <path id="Path_29" data-name="Path 29" d="M168.92,158.66l.15-.26a1.47,1.47,0,0,0,.86.27c.46,0,.65-.15.65-.39,0-.63-1.57-.14-1.57-1.1,0-.39.34-.69,1-.69a1.6,1.6,0,0,1,.85.23l-.14.26a1.23,1.23,0,0,0-.71-.21c-.44,0-.64.17-.64.41,0,.65,1.58.16,1.58,1.09,0,.42-.37.69-1,.69A1.64,1.64,0,0,1,168.92,158.66Z" fill="#263238"/>
      <path id="Path_30" data-name="Path 30" d="M132.67,209.59v4h-.91v-1.62H130v1.62h-.91v-4H130v1.56h1.8v-1.56Z" fill="#fafafa"/>
      <path id="Path_31" data-name="Path 31" d="M136.24,211.81v1.74h-.83v-.38a1,1,0,0,1-.92.42c-.71,0-1.14-.39-1.14-.92s.38-.91,1.31-.91h.7c0-.38-.23-.6-.7-.6a1.45,1.45,0,0,0-.88.29l-.31-.62a2.3,2.3,0,0,1,1.31-.37C135.7,210.46,136.24,210.89,136.24,211.81Zm-.88.78v-.32h-.61c-.41,0-.54.16-.54.36s.19.37.5.37A.66.66,0,0,0,135.36,212.59Z" fill="#fafafa"/>
      <path id="Path_32" data-name="Path 32" d="M137,209.36h.88v4.19H137Z" fill="#fafafa"/>
      <path id="Path_33" data-name="Path 33" d="M138.74,209.36h.88v4.19h-.88Z" fill="#fafafa"/>
      <path id="Path_34" data-name="Path 34" d="M221,228.88a3.549,3.549,0,0,0,.57-.07,4,4,0,0,0,3.15-2.72,4.929,4.929,0,0,0,.17-1.71v-2c0-5.67-.05-13.85-.08-23.94V175.08a3.76,3.76,0,0,0-2.57-3.33,7.161,7.161,0,0,0-2.34-.19H171.49a3.73,3.73,0,0,0-3.7,3.24c-.07,1.83,0,3.78,0,5.64v44.21a3.82,3.82,0,0,0,4.1,4h16.53l23.94.08,6.51.05h-6.51l-23.94.09H171.89a4.26,4.26,0,0,1-4-2.11,4.38,4.38,0,0,1-.56-2.34V174.76a4.28,4.28,0,0,1,4.22-3.7H221a4.889,4.889,0,0,1,1.26.21,4.24,4.24,0,0,1,2,1.45,4.13,4.13,0,0,1,.85,2.3v23.39c0,10.09-.07,18.27-.09,23.94v2a5,5,0,0,1-.21,1.76,4.08,4.08,0,0,1-1.69,2.16,3.87,3.87,0,0,1-1.6.56,2.229,2.229,0,0,1-.52.05Z" fill="#e0e0e0"/>
      <path id="Path_35" data-name="Path 35" d="M186.64,210.26l-.53.55v1h-.91v-3.95h.91v1.84l1.75-1.84h1l-1.64,1.76,1.73,2.19H187.9Z" fill="#263238"/>
      <path id="Path_36" data-name="Path 36" d="M189.15,207.86a.5.5,0,0,1,.55-.49.49.49,0,0,1,.55.47.55.55,0,0,1-1.1,0Zm.11.91h.88v3h-.88Z" fill="#263238"/>
      <path id="Path_37" data-name="Path 37" d="M192.92,211.66a1.27,1.27,0,0,1-.72.2,1,1,0,0,1-1.13-1.09v-1.25h-.47v-.68h.47v-.74H192v.74h.76v.68H192v1.23a.36.36,0,0,0,.38.41.53.53,0,0,0,.35-.12Z" fill="#263238"/>
      <path id="Path_38" data-name="Path 38" d="M193.1,210.29a1.57,1.57,0,0,1,1.69-1.56,1.39,1.39,0,0,1,1.36.77l-.68.37a.81.81,0,1,0-.69,1.26.75.75,0,0,0,.69-.42l.68.38a1.42,1.42,0,0,1-1.36.77,1.57,1.57,0,0,1-1.69-1.57Z" fill="#263238"/>
      <path id="Path_39" data-name="Path 39" d="M199.74,210.07v1.74h-.88v-1.6c0-.49-.22-.72-.61-.72a.725.725,0,0,0-.73.82v1.5h-.88v-4.19h.88v1.47a1.31,1.31,0,0,1,1-.36,1.19,1.19,0,0,1,1.22,1.34Z" fill="#263238"/>
      <path id="Path_40" data-name="Path 40" d="M203.53,210.54h-2.3a.82.82,0,0,0,.87.61,1.06,1.06,0,0,0,.77-.29l.47.5a1.77,1.77,0,0,1-3-1.07,1.54,1.54,0,0,1,1.62-1.56,1.5,1.5,0,0,1,1.58,1.57,1.942,1.942,0,0,1-.01.24Zm-2.31-.51h1.5a.76.76,0,0,0-1.5,0Z" fill="#263238"/>
      <path id="Path_41" data-name="Path 41" d="M207.24,210.07v1.74h-.88v-1.6c0-.49-.22-.72-.61-.72a.725.725,0,0,0-.73.82v1.5h-.88v-3H205v.36a1.32,1.32,0,0,1,1-.4,1.19,1.19,0,0,1,1.24,1.3Z" fill="#263238"/>
      <rect id="Rectangle_40" data-name="Rectangle 40" width="13.86" height="13.86" rx="1.28" transform="translate(189.25 186.24)" fill="#abce65"/>
      <path id="Path_42" data-name="Path 42" d="M201.25,198.19a3.3,3.3,0,0,1-.05-.61c0-.46,0-1,0-1.65,0-1.4-.09-3.38-.12-5.75l.22.22H191.18c-.06.06.49-.49.26-.25h0v7.99l-.23-.23c3,0,5.45.07,7.24.11l2.09.07a5.478,5.478,0,0,1,.79.05,2.73,2.73,0,0,1-.69.06l-2,.06c-1.77,0-4.34.09-7.39.11h-.24V190.2h0c-.24.23.31-.32.26-.27l10.12.05h.22v.21c0,2.47-.08,4.5-.12,5.89A19.773,19.773,0,0,1,201.25,198.19Z" fill="#263238"/>
      <path id="Path_43" data-name="Path 43" d="M192.51,188.32c-.07,0-.12-.2-.32-.29a.34.34,0,1,0,0,.58c.2-.09.25-.29.32-.29s.2.26-.1.58a.71.71,0,0,1-.71.16.78.78,0,0,1,0-1.48.71.71,0,0,1,.71.16C192.71,188.06,192.57,188.34,192.51,188.32Z" fill="#263238"/>
      <path id="Path_44" data-name="Path 44" d="M194.45,188.32c-.07,0-.13-.2-.33-.29a.33.33,0,1,0,0,.58c.2-.09.26-.29.33-.29s.2.26-.1.58a.72.72,0,0,1-.71.16.78.78,0,0,1,0-1.48.72.72,0,0,1,.71.16C194.65,188.06,194.51,188.34,194.45,188.32Z" fill="#263238"/>
      <path id="Path_45" data-name="Path 45" d="M196.39,188.32c-.08,0-.13-.2-.33-.29a.34.34,0,1,0,0,.58c.2-.09.25-.29.33-.29s.19.26-.11.58a.71.71,0,0,1-.71.16.78.78,0,0,1,0-1.48.71.71,0,0,1,.71.16C196.58,188.06,196.44,188.34,196.39,188.32Z" fill="#263238"/>
      <path id="Path_46" data-name="Path 46" d="M198.32,188.32c-.07,0-.12-.2-.32-.29a.34.34,0,1,0,0,.58c.2-.09.25-.29.32-.29s.2.26-.1.58a.71.71,0,0,1-.71.16.78.78,0,0,1,0-1.48.71.71,0,0,1,.71.16C198.52,188.06,198.38,188.34,198.32,188.32Z" fill="#263238"/>
      <path id="Path_47" data-name="Path 47" d="M201.37,188.32c-.07,0-.12-.2-.32-.29a.34.34,0,1,0,0,.58c.2-.09.25-.29.32-.29s.2.26-.1.58a.71.71,0,0,1-.71.16.78.78,0,0,1,0-1.48.71.71,0,0,1,.71.16C201.57,188.06,201.43,188.34,201.37,188.32Z" fill="#263238"/>
      <rect id="Rectangle_41" data-name="Rectangle 41" width="16.72" height="8.92" rx="1.44" transform="translate(125.57 187.82)" fill="#fafafa"/>
      <rect id="Rectangle_42" data-name="Rectangle 42" width="24.09" height="8.56" rx="0.59" transform="translate(121.92 191.69)" fill="#fafafa"/>
      <path id="Path_48" data-name="Path 48" d="M142.29,191.69a17.44,17.44,0,0,1,.18,3v.17h-.18c-2,0-5,.08-8.36.08s-6.32,0-8.36-.08h-.18v-.17a17.44,17.44,0,0,1,.18-3,17,17,0,0,1,.17,3l-.17-.17c2-.05,5-.09,8.36-.09s6.32,0,8.36.09l-.17.17a17,17,0,0,1,.17-3Z" fill="#263238"/>
      <path id="Path_49" data-name="Path 49" d="M125.49,200.17a16,16,0,0,1-.27-4.14,16,16,0,0,1,.27-4.14,16.891,16.891,0,0,1,.26,4.14,16.89,16.89,0,0,1-.26,4.14Z" fill="#263238"/>
      <path id="Path_50" data-name="Path 50" d="M142.31,200.24a15.16,15.16,0,0,1-.26-4,15.22,15.22,0,0,1,.26-4A30.749,30.749,0,0,1,142.31,200.24Z" fill="#263238"/>
      <path id="Path_51" data-name="Path 51" d="M157.32,137.54h1.36l3.67-.09-.1.11c0-.82,0-1.7-.05-2.66v-1.53a1.4,1.4,0,0,1,1.23-1.13h1.75a1.43,1.43,0,0,1,1.2,1.42q0,1.86,0,3.87l-.17-.16,4.62-.05-.17.18v-7.23a1.49,1.49,0,0,0-.64-1.09l-2-2L166,125.2l-1-.94a2.22,2.22,0,0,0-.95-.71,1.24,1.24,0,0,0-1.06.2c-.28.24-.58.57-.86.85l-1.66,1.67c-1,1.08-2.13,2.07-2.92,3a3.26,3.26,0,0,0-.23,1.72c0,.58,0,1.12,0,1.63v4.3a5.215,5.215,0,0,1,0,.61v-2.21c0-.65,0-1.64-.06-2.64v-2.57a1.88,1.88,0,0,1,.26-1c.85-1.05,1.87-2,2.92-3.09.54-.54,1.08-1.11,1.65-1.68.3-.3.54-.59.89-.89a1.59,1.59,0,0,1,1.34-.26,2.53,2.53,0,0,1,1.11.79l.95.93,2,1.92,2,2a4,4,0,0,1,.51.56,1.56,1.56,0,0,1,.25.78v7.41h-4.96v-4.04a1.11,1.11,0,0,0-.94-1.12h-1.67a1.13,1.13,0,0,0-1,.9,14.615,14.615,0,0,0,0,1.48v2.76h-4.83Z" fill="#263238"/>
      <path id="Path_52" data-name="Path 52" d="M143.88,145.85l.32-.69a2.31,2.31,0,0,0,1.3.41c.54,0,.76-.18.76-.42,0-.74-2.3-.23-2.3-1.7,0-.67.55-1.23,1.67-1.23a2.66,2.66,0,0,1,1.37.35l-.28.69a2.24,2.24,0,0,0-1.1-.31c-.54,0-.75.21-.75.45,0,.73,2.3.23,2.3,1.68,0,.66-.55,1.23-1.68,1.23a2.84,2.84,0,0,1-1.61-.46Z" fill="#263238"/>
      <path id="Path_53" data-name="Path 53" d="M152.87,144.5v1.74H152v-1.61c0-.49-.22-.71-.58-.71s-.67.25-.67.79v1.53h-.88v-1.61c0-.49-.21-.71-.58-.71s-.66.25-.66.79v1.53h-.88v-3h.84v.35a1.21,1.21,0,0,1,.95-.39,1.12,1.12,0,0,1,1,.49,1.36,1.36,0,0,1,1.1-.49,1.17,1.17,0,0,1,1.23,1.3Z" fill="#263238"/>
      <path id="Path_54" data-name="Path 54" d="M156.35,144.5v1.74h-.83v-.38a1,1,0,0,1-.92.42c-.71,0-1.14-.39-1.14-.92s.38-.91,1.31-.91h.7c0-.37-.23-.59-.7-.59a1.44,1.44,0,0,0-.88.28l-.31-.62a2.29,2.29,0,0,1,1.31-.36C155.81,143.16,156.35,143.58,156.35,144.5Zm-.88.78V145h-.61c-.41,0-.54.15-.54.35s.19.37.5.37a.66.66,0,0,0,.65-.44Z" fill="#263238"/>
      <path id="Path_55" data-name="Path 55" d="M159,143.16V144h-.2a.74.74,0,0,0-.8.84v1.44h-.88v-3H158v.4A1.22,1.22,0,0,1,159,143.16Z" fill="#263238"/>
      <path id="Path_56" data-name="Path 56" d="M161.62,146.09a1.23,1.23,0,0,1-.71.19,1,1,0,0,1-1.14-1.09V144h-.47v-.68h.47v-.74h.88v.74h.76V144h-.76v1.23a.35.35,0,0,0,.38.4.64.64,0,0,0,.36-.11Z" fill="#263238"/>
      <path id="Path_57" data-name="Path 57" d="M167.41,142.29v4h-.92v-1.62H164.7v1.62h-.92v-4h.92v1.55h1.79v-1.55Z" fill="#263238"/>
      <path id="Path_58" data-name="Path 58" d="M168.06,144.72a1.67,1.67,0,1,1,1.67,1.56,1.55,1.55,0,0,1-1.67-1.56Zm2.44,0a.78.78,0,1,0-.36.749A.78.78,0,0,0,170.5,144.72Z" fill="#263238"/>
      <path id="Path_59" data-name="Path 59" d="M177.12,144.5v1.74h-.89v-1.61c0-.49-.22-.71-.57-.71s-.67.25-.67.79v1.53h-.88v-1.61c0-.49-.21-.71-.58-.71s-.67.25-.67.79v1.53H172v-3h.84v.35a1.24,1.24,0,0,1,1-.39,1.15,1.15,0,0,1,1,.49,1.36,1.36,0,0,1,1.09-.49,1.17,1.17,0,0,1,1.19,1.3Z" fill="#263238"/>
      <path id="Path_60" data-name="Path 60" d="M180.9,145h-2.3a.82.82,0,0,0,.87.61,1,1,0,0,0,.76-.3l.47.51a1.77,1.77,0,0,1-3-1.07,1.54,1.54,0,0,1,1.62-1.56,1.5,1.5,0,0,1,1.58,1.57,2.117,2.117,0,0,1,0,.24Zm-2.31-.52h1.5a.73.73,0,0,0-.75-.63.72.72,0,0,0-.75.6Z" fill="#263238"/>
      <path id="Path_61" data-name="Path 61" d="M119.89,128.6h0a.13.13,0,0,1-.12-.14c0-.12.11-3-2.52-3.36a.11.11,0,0,1-.1-.1.13.13,0,0,1,.07-.14,1.8,1.8,0,0,0,1.08-1.67,1.76,1.76,0,0,0-1.68-1.82h0a1.61,1.61,0,0,0-1.19.52,1.87,1.87,0,0,0-.5,1.28,1.77,1.77,0,0,0,1.08,1.69.13.13,0,0,1,.07.13.11.11,0,0,1-.1.11c-2.65.4-2.57,3.22-2.57,3.33a.12.12,0,0,1-.12.13.13.13,0,0,1-.13-.11s-.09-2.9,2.43-3.52a2.15,2.15,0,0,1-.34-3.21,1.86,1.86,0,0,1,1.37-.6h0a2,2,0,0,1,1.93,2.07,2.07,2.07,0,0,1-.91,1.74c2.49.62,2.38,3.52,2.38,3.55A.14.14,0,0,1,119.89,128.6Z" fill="#263238"/>
      <path id="Path_62" data-name="Path 62" d="M158.1,292.8a3.982,3.982,0,0,0,.57-.06,4.23,4.23,0,0,0,1.56-.56,4.35,4.35,0,0,0,1.76-2c.48-1,.31-2.26.33-3.67,0-5.65,0-13.8-.08-23.87V239.33a4,4,0,0,0-.71-2.08,4.16,4.16,0,0,0-1.71-1.42,4.94,4.94,0,0,0-2.28-.35H109.25a4.07,4.07,0,0,0-3.94,3.07,14.749,14.749,0,0,0-.13,2.77V288.2a4.2,4.2,0,0,0,.46,2.14,4.1,4.1,0,0,0,3.45,2.21h16.47l23.88.08,6.49.05h0l-6.49.05-23.88.08L109,293a4.53,4.53,0,0,1-3.83-2.44,4.74,4.74,0,0,1-.51-2.34v-48.3a5.72,5.72,0,0,1,.14-1.47,4.6,4.6,0,0,1,4.45-3.47h48.29a5.36,5.36,0,0,1,2.46.4,4.49,4.49,0,0,1,2.69,3.9c0,.8,0,1.55,0,2.32v21.01c0,10.07-.07,18.22-.09,23.87v2a4.31,4.31,0,0,1-.38,1.73,4.4,4.4,0,0,1-1.84,2,4.17,4.17,0,0,1-1.61.52A2.551,2.551,0,0,1,158.1,292.8Z" fill="#e0e0e0"/>
      <path id="Path_63" data-name="Path 63" d="M124,274.65c0,.69-.55,1.08-1.59,1.08h-2v-4h1.93c1,0,1.5.41,1.5,1a1.066,1.066,0,0,0,.16,1.92Zm-2.72-2.18v.93h.91c.45,0,.69-.16.69-.47s-.24-.46-.69-.46Zm1.8,2.09c0-.34-.26-.49-.73-.49h-1.07v1h1.07c.46-.07.72-.18.72-.51Z" fill="#263238"/>
      <path id="Path_64" data-name="Path 64" d="M127.58,274.46h-2.3a.82.82,0,0,0,.87.61,1.06,1.06,0,0,0,.76-.29l.47.5a1.77,1.77,0,0,1-3-1.07,1.55,1.55,0,0,1,1.62-1.56,1.51,1.51,0,0,1,1.59,1.57A1.926,1.926,0,0,1,127.58,274.46Zm-2.31-.51h1.5a.76.76,0,0,0-1.5,0Z" fill="#263238"/>
      <path id="Path_65" data-name="Path 65" d="M131.28,271.54v4.19h-.84v-.35a1.17,1.17,0,0,1-.95.4,1.57,1.57,0,0,1,0-3.13,1.2,1.2,0,0,1,.91.36v-1.47Zm-.87,2.67a.78.78,0,1,0-.77.84.77.77,0,0,0,.77-.84Z" fill="#263238"/>
      <path id="Path_66" data-name="Path 66" d="M134,272.65v.81h-.2a.75.75,0,0,0-.81.85v1.43h-.88v-3h.84v.4A1.25,1.25,0,0,1,134,272.65Z" fill="#263238"/>
      <path id="Path_67" data-name="Path 67" d="M134.25,274.21a1.67,1.67,0,1,1,1.67,1.57,1.57,1.57,0,0,1-1.67-1.57Zm2.44,0a.78.78,0,1,0-.77.84.77.77,0,0,0,.77-.84Z" fill="#263238"/>
      <path id="Path_68" data-name="Path 68" d="M138,274.21a1.67,1.67,0,1,1,1.67,1.57,1.56,1.56,0,0,1-1.67-1.57Zm2.44,0a.78.78,0,1,0-.77.84.77.77,0,0,0,.72-.84Z" fill="#263238"/>
      <path id="Path_69" data-name="Path 69" d="M147,274v1.74h-.88v-1.6c0-.49-.22-.72-.58-.72s-.67.25-.67.8v1.52H144v-1.6c0-.49-.21-.72-.58-.72s-.66.25-.66.8v1.52h-.89v-3h.85V273a1.21,1.21,0,0,1,.95-.39,1.15,1.15,0,0,1,1,.49,1.36,1.36,0,0,1,1.09-.49A1.18,1.18,0,0,1,147,274Z" fill="#263238"/>
      <rect id="Rectangle_43" data-name="Rectangle 43" width="24.19" height="5.66" rx="1.24" transform="translate(121.55 261.01)" fill="#abce65"/>
      <rect id="Rectangle_44" data-name="Rectangle 44" width="20.3" height="8.02" rx="0.39" transform="translate(123.34 254.86)" fill="#abce65"/>
      <path id="Path_70" data-name="Path 70" d="M139.4,261a1.72,1.72,0,0,1-.1-.58,1.71,1.71,0,0,0-1.59-1.6h-8.28a1.75,1.75,0,0,0-.9.34,1.8,1.8,0,0,0-.68,1.26c0,.37-.07.58-.11.58a1.48,1.48,0,0,1-.1-.59,1.91,1.91,0,0,1,.65-1.53,2.07,2.07,0,0,1,1.1-.49h8.36a2,2,0,0,1,1.1.49,1.85,1.85,0,0,1,.65,1.53C139.48,260.8,139.44,261,139.4,261Z" fill="#263238"/>
      <path id="Path_71" data-name="Path 71" d="M144.49,260.94c0,.14-4.86.26-10.85.26s-10.84-.12-10.84-.26,4.85-.26,10.84-.26S144.49,260.79,144.49,260.94Z" fill="#263238"/>
      <path id="Path_72" data-name="Path 72" d="M219.29,292.8a4.86,4.86,0,0,0,2.13-.61,4.32,4.32,0,0,0,2.19-3.62c0-.62,0-1.29,0-2,0-5.65-.05-13.8-.09-23.86V239.42a4.17,4.17,0,0,0-.7-2.09,4.32,4.32,0,0,0-3.94-1.86h-48.3a4.17,4.17,0,0,0-4,3,10.75,10.75,0,0,0-.16,2.75v46.84a4.23,4.23,0,0,0,3.85,4.44l16.45.05,23.86.08,6.48.05h0l-6.48.05-23.86.08H170.19a4.64,4.64,0,0,1-3.76-2.53,4.85,4.85,0,0,1-.51-2.34V239.87a5,5,0,0,1,.18-1.48,4.69,4.69,0,0,1,4.51-3.4h48.25a5.08,5.08,0,0,1,2.45.46,4.77,4.77,0,0,1,1.88,1.62,4.6,4.6,0,0,1,.76,2.32c0,.8,0,1.55,0,2.32V262.7c0,10.06-.06,18.21-.08,23.86v2a4.58,4.58,0,0,1-.43,1.71,4.41,4.41,0,0,1-1.89,2,4.07,4.07,0,0,1-1.61.51A2.45,2.45,0,0,1,219.29,292.8Z" fill="#e0e0e0"/>
      <path id="Path_73" data-name="Path 73" d="M185.27,274.65c0,.69-.54,1.08-1.58,1.08h-2v-4h1.93c1,0,1.49.41,1.49,1a1.074,1.074,0,0,0,.16,1.92Zm-2.71-2.18v.93h.9c.45,0,.69-.16.69-.47s-.24-.46-.69-.46Zm1.79,2.09c0-.34-.25-.49-.73-.49h-1.06v1h1.06c.48-.07.73-.18.73-.51Z" fill="#263238"/>
      <path id="Path_74" data-name="Path 74" d="M188.59,274v1.73h-.82v-.38a1,1,0,0,1-.93.43c-.71,0-1.13-.4-1.13-.92s.38-.91,1.3-.91h.7c0-.38-.22-.6-.7-.6a1.48,1.48,0,0,0-.87.28l-.32-.62a2.4,2.4,0,0,1,1.31-.36C188.06,272.65,188.59,273.08,188.59,274Zm-.88.77v-.31h-.6c-.41,0-.54.15-.54.36s.18.36.49.36a.64.64,0,0,0,.65-.41Z" fill="#263238"/>
      <path id="Path_75" data-name="Path 75" d="M191.35,275.58a1.27,1.27,0,0,1-.72.2,1,1,0,0,1-1.13-1.09v-1.25H189v-.68h.47V272h.88v.74h.75v.68h-.75v1.24a.36.36,0,0,0,.38.4.53.53,0,0,0,.35-.12Z" fill="#263238"/>
      <path id="Path_76" data-name="Path 76" d="M195,274v1.74h-.88v-1.6c0-.49-.22-.72-.61-.72a.725.725,0,0,0-.73.82v1.5h-.88v-4.19h.88V273a1.3,1.3,0,0,1,1-.36A1.19,1.19,0,0,1,195,274Z" fill="#263238"/>
      <path id="Path_77" data-name="Path 77" d="M197.64,272.65v.81h-.2a.75.75,0,0,0-.81.85v1.43h-.88v-3h.84v.4A1.25,1.25,0,0,1,197.64,272.65Z" fill="#263238"/>
      <path id="Path_78" data-name="Path 78" d="M197.91,274.21a1.67,1.67,0,1,1,1.67,1.57,1.56,1.56,0,0,1-1.67-1.57Zm2.44,0a.78.78,0,1,0-.77.84.77.77,0,0,0,.77-.84Z" fill="#263238"/>
      <path id="Path_79" data-name="Path 79" d="M201.61,274.21a1.67,1.67,0,1,1,1.67,1.57,1.56,1.56,0,0,1-1.67-1.57Zm2.44,0a.78.78,0,1,0-.77.84.77.77,0,0,0,.77-.84Z" fill="#263238"/>
      <path id="Path_80" data-name="Path 80" d="M210.66,274v1.74h-.88v-1.6c0-.49-.22-.72-.57-.72s-.67.25-.67.8v1.52h-.88v-1.6c0-.49-.21-.72-.58-.72s-.67.25-.67.8v1.52h-.88v-3h.84V273a1.24,1.24,0,0,1,1-.39,1.15,1.15,0,0,1,1,.49,1.36,1.36,0,0,1,1.09-.49,1.17,1.17,0,0,1,1.2,1.39Z" fill="#263238"/>
      <path id="Path_81" data-name="Path 81" d="M195.19,253.78h0a1,1,0,0,0-1,1v11.07h2V254.77A1,1,0,0,0,195.19,253.78Z" fill="#abce65"/>
      <rect id="Rectangle_45" data-name="Rectangle 45" width="1.13" height="2.12" transform="translate(189.68 263.72)" fill="#abce65"/>
      <rect id="Rectangle_46" data-name="Rectangle 46" width="3.45" height="1.58" transform="translate(188.52 262.82)" fill="#abce65"/>
      <rect id="Rectangle_47" data-name="Rectangle 47" width="1.13" height="2.12" transform="translate(199.02 263.72)" fill="#abce65"/>
      <rect id="Rectangle_48" data-name="Rectangle 48" width="3.45" height="1.58" transform="translate(197.86 262.82)" fill="#abce65"/>
      <path id="Path_82" data-name="Path 82" d="M191.86,264.42c0,.15-.75.26-1.67.26s-1.68-.11-1.68-.26.75-.26,1.68-.26S191.86,264.28,191.86,264.42Z" fill="#263238"/>
      <path id="Path_83" data-name="Path 83" d="M201.34,264.42c0,.15-.75.26-1.67.26s-1.67-.11-1.67-.26.75-.26,1.67-.26S201.34,264.28,201.34,264.42Z" fill="#263238"/>
      <path id="Path_84" data-name="Path 84" d="M198.88,349.9H129.31a12,12,0,0,1-12-12h0a12,12,0,0,1,12-12h69.57a12,12,0,0,1,12,12h0A12,12,0,0,1,198.88,349.9Z" fill="#abce65"/>
      <path id="Path_85" data-name="Path 85" d="M163.15,339.9c0,.85-.65,1.34-1.91,1.34h-2.37v-5h2.23c1.14,0,1.78.49,1.78,1.29a1.17,1.17,0,0,1-.66,1.11,1.21,1.21,0,0,1,.93,1.26Zm-3.57-3.06v1.59H161c.72,0,1.13-.27,1.13-.79s-.41-.8-1.13-.8Zm2.85,3c0-.58-.43-.83-1.22-.83h-1.63v1.65h1.63C162,340.66,162.43,340.42,162.43,339.84Z" fill="#fff"/>
      <path id="Path_86" data-name="Path 86" d="M164.15,336h.68v5.28h-.68Z" fill="#fff"/>
      <path id="Path_87" data-name="Path 87" d="M165.78,339.36a2,2,0,1,1,2,1.92,1.88,1.88,0,0,1-2-1.92Zm3.23,0a1.27,1.27,0,1,0-1.27,1.27,1.27,1.27,0,0,0,1.27-1.27Z" fill="#fff"/>
      <path id="Path_88" data-name="Path 88" d="M170.3,339.36a1.88,1.88,0,0,1,2-1.92,1.68,1.68,0,0,1,1.54.8l-.52.33a1.2,1.2,0,0,0-1-.54,1.33,1.33,0,1,0,0,2.66,1.22,1.22,0,0,0,1-.54l.52.32a1.69,1.69,0,0,1-1.54.81,1.88,1.88,0,0,1-2-1.92Z" fill="#fff"/>
      <path id="Path_89" data-name="Path 89" d="M176.12,339.48l-.78.73v1h-.68V336h.68v3.39l2-1.88h.83L176.63,339l1.74,2.21h-.83Z" fill="#fff"/>
      <path id="Path_90" data-name="Path 90" d="M153.73,336.57v-.48a1.59,1.59,0,0,0-3.17,0v.5a.88.88,0,0,0-.75.88v2.86a.9.9,0,0,0,.9.88h3a.88.88,0,0,0,.88-.9v-2.85A.91.91,0,0,0,153.73,336.57Zm-1.12,3.05h-.78l.12-.57a.45.45,0,0,1-.23-.39.47.47,0,0,1,.47-.48.45.45,0,0,1,.47.46.44.44,0,0,1-.2.4Zm.78-3.05H150.9v-.48a1.25,1.25,0,1,1,2.49,0Z" fill="#fff"/>
      <path id="Path_91" data-name="Path 91" d="M158.92,307.92a2.07,2.07,0,1,1-2.06-2.07,2.07,2.07,0,0,1,2.06,2.07Z" fill="#e0e0e0"/>
      <path id="Path_92" data-name="Path 92" d="M167.25,307.92a2.07,2.07,0,1,1-2.07-2.07A2.07,2.07,0,0,1,167.25,307.92Z" fill="#e0e0e0"/>
      <path id="Path_93" data-name="Path 93" d="M175.58,307.92a2.07,2.07,0,1,1-2.07-2.07A2.07,2.07,0,0,1,175.58,307.92Z" fill="#e0e0e0"/>
      <path id="Path_94" data-name="Path 94" d="M292.52,41.31H273.27a4.79,4.79,0,0,0-4.68,4.89v3.49a4.79,4.79,0,0,1-4.68,4.89H226.38a4.78,4.78,0,0,1-4.67-4.89V46.15A4.78,4.78,0,0,0,217,41.26H193.41A15.14,15.14,0,0,0,178.26,56.4v243a15.15,15.15,0,0,0,15.14,15.15l99.1.06a15.15,15.15,0,0,0,15.16-15.15l.05-243a15.14,15.14,0,0,0-15.19-15.15Z" fill="#fff"/>
      <path id="Path_95" data-name="Path 95" d="M293.06,40.63h.52a10.35,10.35,0,0,1,1.53.12,14.25,14.25,0,0,1,5.69,2,14.4,14.4,0,0,1,3.45,2.8,15.129,15.129,0,0,1,2.89,4.52,15.75,15.75,0,0,1,1.13,6.15v7.15c0,20.18,0,49.39.05,85.47s0,79.06,0,126.78v22.7a15.82,15.82,0,0,1-.58,4.63,15.21,15.21,0,0,1-1.93,4.27,16.68,16.68,0,0,1-3.16,3.5,15.31,15.31,0,0,1-8.75,3.39c-3.17.1-6.33,0-9.52.05H195a16,16,0,0,1-9.87-2.72,15.59,15.59,0,0,1-6-8.3,16.771,16.771,0,0,1-.63-5.12V56c0-.61.05-1.23.09-1.84a9.163,9.163,0,0,1,.31-1.8,15.308,15.308,0,0,1,15.54-11.9h22.67a4.86,4.86,0,0,1,3,.83,5,5,0,0,1,1.85,2.44,8,8,0,0,1,.31,3V48.2a9.9,9.9,0,0,0,.05,1.45,4.72,4.72,0,0,0,1.13,2.53,4.49,4.49,0,0,0,2.31,1.44,5.23,5.23,0,0,0,1.37.14h37.73a4.27,4.27,0,0,0,1.85-.65,4.79,4.79,0,0,0,2.13-3,8.762,8.762,0,0,0,.12-1.84V46.41a10.453,10.453,0,0,1,.08-1.77A5.2,5.2,0,0,1,269.7,43a4.79,4.79,0,0,1,2.42-2.14,7.64,7.64,0,0,1,3-.32h0a7.31,7.31,0,0,0-3,.32,4.67,4.67,0,0,0-2.34,2.08,4.79,4.79,0,0,0-.55,1.58,9.931,9.931,0,0,0-.07,1.74v1.81a8.477,8.477,0,0,1-.12,1.87,5,5,0,0,1-2.19,3.17,4.65,4.65,0,0,1-1.93.68,20.614,20.614,0,0,1-2.08,0h-35.6a5.83,5.83,0,0,1-1.43-.14,4.73,4.73,0,0,1-2.45-1.52,5.12,5.12,0,0,1-1.19-2.67,10.511,10.511,0,0,1,0-1.48V46.71a8,8,0,0,0-.3-2.9,4.75,4.75,0,0,0-1.75-2.3,4.54,4.54,0,0,0-2.83-.78H194.57a15.013,15.013,0,0,0-15.23,11.66c-.15.58-.2,1.18-.3,1.77A11.16,11.16,0,0,0,179,56V298a16.23,16.23,0,0,0,.62,5,15,15,0,0,0,5.83,8.06,15.59,15.59,0,0,0,9.63,2.65h98.87a14.92,14.92,0,0,0,8.51-3.3A15.841,15.841,0,0,0,305.5,307a14.939,14.939,0,0,0,1.88-4.15,15.661,15.661,0,0,0,.57-4.52v-22.7c0-47.72.05-90.69.07-126.78s.06-65.29.08-85.47V56.23A15.64,15.64,0,0,0,307,50.1a15.271,15.271,0,0,0-2.85-4.5,15.07,15.07,0,0,0-9.06-4.79,12.87,12.87,0,0,0-1.53-.14Z" fill="#263238"/>
      <path id="Path_96" data-name="Path 96" d="M296,65.17c0,.07-2.51.14-5.59.16s-5.6,0-5.6-.07,2.5-.14,5.59-.16S296,65.1,296,65.17Z" fill="#263238"/>
      <path id="Path_97" data-name="Path 97" d="M296,68c0,.07-2.5.14-5.59.17s-5.59,0-5.59-.08,2.5-.13,5.59-.16S296,68,296,68Z" fill="#263238"/>
      <path id="Path_98" data-name="Path 98" d="M296,70.89c0,.07-2.5.14-5.59.17s-5.59,0-5.59-.07,2.5-.14,5.59-.17S296,70.83,296,70.89Z" fill="#263238"/>
      <path id="Path_99" data-name="Path 99" d="M199.55,68.56v5.16h-1.19V71.61H196v2.11h-1.19V68.56H196v2h2.35v-2Z" fill="#abce65"/>
      <path id="Path_100" data-name="Path 100" d="M204.21,71.46v2.26h-1.08v-.49a1.3,1.3,0,0,1-1.21.55c-.93,0-1.48-.52-1.48-1.2s.49-1.19,1.7-1.19h.92c0-.49-.3-.78-.92-.78A1.9,1.9,0,0,0,201,71l-.41-.8a3,3,0,0,1,1.71-.48C203.51,69.7,204.21,70.26,204.21,71.46Zm-1.15,1v-.41h-.79c-.54,0-.71.2-.71.47s.24.48.65.48a.86.86,0,0,0,.85-.53Z" fill="#abce65"/>
      <path id="Path_101" data-name="Path 101" d="M205.25,68.25h1.15v5.47h-1.15Z" fill="#abce65"/>
      <path id="Path_102" data-name="Path 102" d="M207.47,68.25h1.15v5.47h-1.15Z" fill="#abce65"/>
      <rect id="Rectangle_49" data-name="Rectangle 49" width="16.69" height="8.9" rx="1.42" transform="translate(233.66 84.63)" fill="#abce65"/>
      <rect id="Rectangle_50" data-name="Rectangle 50" width="24.05" height="8.54" rx="0.39" transform="translate(230.02 88.49)" fill="#abce65"/>
      <path id="Path_103" data-name="Path 103" d="M250.36,88.49a17,17,0,0,1,.17,3v.17h-.18c-2,.06-5,.09-8.35.09s-6.3,0-8.35-.09h-.18v-.17a19.852,19.852,0,0,1,.17-3,17.44,17.44,0,0,1,.18,3l-.18-.18c2.05,0,5-.08,8.35-.08s6.31,0,8.35.08l-.18.18a17.441,17.441,0,0,1,.2-3Z" fill="#263238"/>
      <path id="Path_104" data-name="Path 104" d="M233.58,97a16.89,16.89,0,0,1-.26-4.14,16.841,16.841,0,0,1,.26-4.13,16.841,16.841,0,0,1,.26,4.13,16.889,16.889,0,0,1-.26,4.14Z" fill="#263238"/>
      <path id="Path_105" data-name="Path 105" d="M250.38,97a15.11,15.11,0,0,1-.26-4,15.16,15.16,0,0,1,.26-4,15.689,15.689,0,0,1,.26,4A15.64,15.64,0,0,1,250.38,97Z" fill="#263238"/>
      <path id="Path_106" data-name="Path 106" d="M228,120.85h-1.4v-.36h3.22v.36h-1.4v3.61H228Z" fill="#263238"/>
      <path id="Path_107" data-name="Path 107" d="M232.72,123.1h-2.5a1.11,1.11,0,0,0,1.18,1,1.17,1.17,0,0,0,.91-.39l.23.26a1.58,1.58,0,0,1-2.72-1,1.46,1.46,0,1,1,2.91,0S232.72,123.05,232.72,123.1Zm-2.5-.31h2.12a1.06,1.06,0,1,0-2.12,0Z" fill="#263238"/>
      <path id="Path_108" data-name="Path 108" d="M238.48,122.73v1.73h-.4v-1.69c0-.63-.32-1-.86-1a1,1,0,0,0-1,1.08v1.56h-.4v-1.69c0-.63-.32-1-.87-1a1,1,0,0,0-1,1.08v1.56h-.41v-3h.39V122a1.19,1.19,0,0,1,1.09-.57,1.09,1.09,0,0,1,1.07.63,1.3,1.3,0,0,1,1.18-.63,1.13,1.13,0,0,1,1.21,1.3Z" fill="#263238"/>
      <path id="Path_109" data-name="Path 109" d="M242.61,123a1.45,1.45,0,0,1-1.49,1.52,1.3,1.3,0,0,1-1.14-.59v1.66h-.4v-4.08H240v.59a1.29,1.29,0,0,1,1.15-.62,1.45,1.45,0,0,1,1.46,1.52Zm-.41,0a1.11,1.11,0,1,0-1.11,1.11A1.11,1.11,0,0,0,242.2,123Z" fill="#263238"/>
      <path id="Path_110" data-name="Path 110" d="M246,123.1h-2.5a1.11,1.11,0,0,0,1.18,1,1.17,1.17,0,0,0,.91-.39l.23.26a1.58,1.58,0,0,1-2.72-1,1.46,1.46,0,1,1,2.91,0S246,123.05,246,123.1Zm-2.5-.31h2.12a1.06,1.06,0,0,0-2.12,0Z" fill="#263238"/>
      <path id="Path_111" data-name="Path 111" d="M248.37,121.45v.4h-.1a1,1,0,0,0-1,1.1v1.52h-.41v-3h.39v.58A1.13,1.13,0,0,1,248.37,121.45Z" fill="#263238"/>
      <path id="Path_112" data-name="Path 112" d="M251.34,122.61v1.85H251V124a1.15,1.15,0,0,1-1,.49c-.68,0-1.09-.35-1.09-.87s.29-.84,1.15-.84h.95v-.18c0-.52-.29-.79-.85-.79a1.49,1.49,0,0,0-1,.35l-.18-.3a1.86,1.86,0,0,1,1.21-.41,1.06,1.06,0,0,1,1.15,1.16Zm-.4,1v-.49H250c-.58,0-.76.23-.76.53s.27.56.75.56a1,1,0,0,0,.95-.64Z" fill="#263238"/>
      <path id="Path_113" data-name="Path 113" d="M254,124.28a1,1,0,0,1-.63.21.79.79,0,0,1-.87-.87v-1.8H252v-.34h.53v-.66h.4v.66h.91v.34h-.91v1.78a.48.48,0,0,0,.52.55.68.68,0,0,0,.44-.16Z" fill="#263238"/>
      <path id="Path_114" data-name="Path 114" d="M257.44,121.48v3h-.39v-.54a1.19,1.19,0,0,1-1.07.57,1.15,1.15,0,0,1-1.26-1.28V121.5h.4v1.69a.84.84,0,0,0,.9,1,1,1,0,0,0,1-1.09v-1.56Z" fill="#263238"/>
      <path id="Path_115" data-name="Path 115" d="M260.07,121.45v.4H260a1,1,0,0,0-1,1.1v1.52h-.4v-3h.4v.58a1.11,1.11,0,0,1,1.07-.6Z" fill="#263238"/>
      <path id="Path_116" data-name="Path 116" d="M263.37,123.1h-2.49a1.1,1.1,0,0,0,1.17,1,1.17,1.17,0,0,0,.91-.39l.23.26a1.45,1.45,0,0,1-1.15.49,1.48,1.48,0,0,1-1.57-1.52,1.46,1.46,0,1,1,2.91,0S263.37,123.05,263.37,123.1Zm-2.49-.31H263a1.06,1.06,0,0,0-2.11,0Z" fill="#263238"/>
      <path id="Path_117" data-name="Path 117" d="M221.33,123.88v-4.23a1.06,1.06,0,0,0-2.11,0v4.23a2.22,2.22,0,1,0,2.11,0Z" fill="#263238"/>
      <rect id="Rectangle_51" data-name="Rectangle 51" width="79.58" height="20.43" rx="10.215" transform="translate(203.65 252.87)" fill="#abce65"/>
      <path id="Path_118" data-name="Path 118" d="M235.58,264.56l.26-.54a2.42,2.42,0,0,0,1.58.56c.84,0,1.2-.32,1.2-.74,0-1.18-2.92-.44-2.92-2.23,0-.74.58-1.37,1.84-1.37a2.79,2.79,0,0,1,1.55.43l-.23.55a2.47,2.47,0,0,0-1.32-.4c-.82,0-1.17.35-1.17.77,0,1.17,2.92.44,2.92,2.21,0,.73-.59,1.37-1.87,1.37a2.86,2.86,0,0,1-1.84-.61Z" fill="#fff"/>
      <path id="Path_119" data-name="Path 119" d="M243.09,262.91v2.2h-.62v-.48a1.36,1.36,0,0,1-1.2.52c-.83,0-1.35-.44-1.35-1.07s.38-1.07,1.47-1.07h1v-.13c0-.56-.32-.88-1-.88a1.83,1.83,0,0,0-1.15.39l-.28-.49a2.39,2.39,0,0,1,1.51-.47C242.53,261.43,243.09,261.91,243.09,262.91Zm-.66,1.09v-.51h-1c-.65,0-.84.25-.84.56s.31.59.81.59A1,1,0,0,0,242.43,264Z" fill="#fff"/>
      <path id="Path_120" data-name="Path 120" d="M247.48,261.46l-1.6,3.65h-.67l-1.6-3.65h.69l1.25,2.93,1.28-2.93Z" fill="#fff"/>
      <path id="Path_121" data-name="Path 121" d="M251.28,263.51h-3a1.23,1.23,0,0,0,1.32,1.06,1.36,1.36,0,0,0,1.06-.44l.36.43a2,2,0,0,1-3.4-1.27,1.79,1.79,0,0,1,1.83-1.86,1.76,1.76,0,0,1,1.8,1.88A1.413,1.413,0,0,1,251.28,263.51Zm-3-.48h2.34a1.18,1.18,0,0,0-2.34,0Z" fill="#fff"/>
      <path id="Path_122" data-name="Path 122" d="M274,300.85H214.81a10.34,10.34,0,0,1,0-20.68H274a10.34,10.34,0,0,1,0,20.68Zm-59.14-20.43a10.09,10.09,0,1,0,0,20.18H274a10.09,10.09,0,0,0,0-20.18Z" fill="#abce65"/>
      <path id="Path_123" data-name="Path 123" d="M232.82,290.12a2.43,2.43,0,0,1,2.55-2.46,2.39,2.39,0,0,1,1.84.75l-.45.43a1.8,1.8,0,0,0-1.36-.57,1.85,1.85,0,1,0,1.36,3.12l.45.44a2.58,2.58,0,0,1-4.39-1.71Z" fill="#abce65"/>
      <path id="Path_124" data-name="Path 124" d="M240.94,290.33v2.2h-.63v-.48a1.34,1.34,0,0,1-1.19.52c-.83,0-1.35-.44-1.35-1.07s.38-1.07,1.46-1.07h1.05v-.13c0-.56-.32-.88-1-.88a1.83,1.83,0,0,0-1.15.39l-.28-.5a2.44,2.44,0,0,1,1.51-.46C240.38,288.85,240.94,289.33,240.94,290.33Zm-.66,1.08v-.51h-1c-.65,0-.84.26-.84.57s.3.59.81.59a1.07,1.07,0,0,0,1.03-.65Z" fill="#abce65"/>
      <path id="Path_125" data-name="Path 125" d="M245.63,290.43v2.1H245v-2c0-.71-.36-1.06-1-1.06a1.08,1.08,0,0,0-1.15,1.21v1.88h-.66v-3.65h.63v.55a1.58,1.58,0,0,1,1.32-.58,1.41,1.41,0,0,1,1.49,1.55Z" fill="#abce65"/>
      <path id="Path_126" data-name="Path 126" d="M246.54,290.7a1.82,1.82,0,0,1,1.93-1.85,1.6,1.6,0,0,1,1.48.77l-.5.33a1.13,1.13,0,0,0-1-.53,1.29,1.29,0,0,0,0,2.57,1.12,1.12,0,0,0,1-.52l.5.31a1.62,1.62,0,0,1-1.48.79,1.83,1.83,0,0,1-1.93-1.87Z" fill="#abce65"/>
      <path id="Path_127" data-name="Path 127" d="M254,290.92h-3a1.24,1.24,0,0,0,1.4,1.08,1.33,1.33,0,0,0,1-.44l.37.43a1.961,1.961,0,0,1-3.44-1.28,1.78,1.78,0,0,1,1.83-1.85,1.75,1.75,0,0,1,1.8,1.87,1.34,1.34,0,0,1,.04.19Zm-3-.47h2.34a1.18,1.18,0,0,0-2.34,0Z" fill="#abce65"/>
      <path id="Path_128" data-name="Path 128" d="M255,287.42h.66v5.11H255Z" fill="#abce65"/>
      <path id="Path_129" data-name="Path 129" d="M297.3,199.33v-.43c0-.29-.05-.72-.09-1.26s-.08-1.25-.13-2a18.791,18.791,0,0,0-.26-2.78c-.16-1-.34-2.2-.53-3.46-.06-.32-.09-.65-.16-1l-.25-1c-.18-.67-.35-1.37-.54-2.1s-.34-1.48-.6-2.23-.54-1.53-.83-2.33-.57-1.62-.9-2.45l-1.17-2.49c-.42-.84-.76-1.75-1.28-2.58l-1.53-2.6-.8-1.33c-.3-.42-.61-.85-.93-1.28l-1.91-2.63c-.7-.86-1.47-1.68-2.22-2.54l-1.17-1.3c-.39-.43-.84-.81-1.27-1.21-.85-.81-1.73-1.62-2.61-2.44l-2.91-2.25a28.474,28.474,0,0,0-3.13-2.1,29.413,29.413,0,0,0-3.32-1.94l-3.53-1.74-3.76-1.42a50.13,50.13,0,0,0-32.81,0l-3.76,1.42-3.53,1.74a30.467,30.467,0,0,0-3.33,1.94,29.319,29.319,0,0,0-3.12,2.1L212,157.89l-2.62,2.44c-.42.41-.87.78-1.26,1.21s-.77.86-1.14,1.29c-.75.86-1.52,1.68-2.22,2.54L202.85,168l-.94,1.28-.79,1.34-1.54,2.59c-.52.84-.85,1.74-1.27,2.58s-.8,1.68-1.18,2.49-.6,1.66-.89,2.45l-.84,2.33c-.25.75-.4,1.51-.59,2.23l-.54,2.1c-.08.34-.17.67-.25,1s-.11.65-.16,1c-.2,1.26-.37,2.42-.53,3.46a20.4,20.4,0,0,0-.27,2.78c0,.81-.09,1.49-.12,2s-.07,1-.09,1.26a2,2,0,0,1,0,.43,2.3,2.3,0,0,1,0-.43v-1.26a19.915,19.915,0,0,1,.08-2.06,21.262,21.262,0,0,1,.21-2.79c.15-1,.32-2.22.5-3.49a5.516,5.516,0,0,1,.15-1l.24-1c.16-.68.34-1.38.51-2.11s.34-1.49.59-2.25.53-1.54.82-2.35.56-1.63.88-2.47.77-1.66,1.16-2.52a23.955,23.955,0,0,1,1.27-2.6l1.54-2.62c.26-.45.52-.9.79-1.35l.93-1.3,1.92-2.66c.7-.87,1.47-1.7,2.23-2.57l1.14-1.3c.4-.44.85-.82,1.27-1.23l2.64-2.47,2.93-2.27a27.461,27.461,0,0,1,3.14-2.13,29.542,29.542,0,0,1,3.36-2l3.56-1.76,3.79-1.44a50.46,50.46,0,0,1,33.15,0l3.79,1.44,3.56,1.76a31.11,31.11,0,0,1,3.36,2,27.46,27.46,0,0,1,3.14,2.13l2.93,2.27L281,160c.43.41.88.79,1.27,1.22l1.15,1.31c.75.87,1.53,1.7,2.22,2.57s1.3,1.79,1.92,2.66l.94,1.29c.26.46.53.91.79,1.35l1.53,2.62c.52.85.85,1.77,1.28,2.61s.78,1.7,1.16,2.52.59,1.67.88,2.47.56,1.59.82,2.34.39,1.53.58,2.26l.52,2.11.24,1c.07.33.1.65.15,1,.18,1.27.35,2.44.49,3.49a19.8,19.8,0,0,1,.22,2.79c0,.81.05,1.49.07,2.06s0,1,0,1.26a1.727,1.727,0,0,1,.07.4Z" fill="#abce65"/>
      <path id="Path_130" data-name="Path 130" d="M201.22,197a7.47,7.47,0,0,1,2.6.27,7.53,7.53,0,0,1-2.61.23,6.4,6.4,0,0,1-2.6-.26,6.64,6.64,0,0,1,2.61-.24Z" fill="#263238"/>
      <path id="Path_131" data-name="Path 131" d="M201.83,190.17c1.42.24,2.54.64,2.5.89s-1.23.28-2.65.08-2.54-.61-2.5-.9S200.41,189.92,201.83,190.17Z" fill="#263238"/>
      <path id="Path_132" data-name="Path 132" d="M203.52,183.51c1.36.47,2.4,1,2.32,1.28s-1.26.09-2.63-.34-2.41-1-2.32-1.28S202.16,183.05,203.52,183.51Z" fill="#263238"/>
      <path id="Path_133" data-name="Path 133" d="M206.23,177.21c1.27.68,2.21,1.4,2.09,1.63s-1.25-.12-2.54-.76-2.22-1.37-2.09-1.62S205,176.54,206.23,177.21Z" fill="#263238"/>
      <path id="Path_134" data-name="Path 134" d="M209.91,171.42c1.15.86,2,1.73,1.81,1.93s-1.22-.31-2.39-1.14-2-1.7-1.81-1.94S208.76,170.55,209.91,171.42Z" fill="#263238"/>
      <path id="Path_135" data-name="Path 135" d="M214.44,166.27c1,1,1.67,2,1.49,2.19s-1.16-.49-2.19-1.5-1.69-2-1.48-2.19S213.44,165.24,214.44,166.27Z" fill="#263238"/>
      <path id="Path_136" data-name="Path 136" d="M219.72,161.89c.82,1.18,1.33,2.25,1.12,2.4s-1.06-.67-1.92-1.83-1.36-2.22-1.13-2.39S218.89,160.71,219.72,161.89Z" fill="#263238"/>
      <path id="Path_137" data-name="Path 137" d="M225.61,158.38c.63,1.3,1,2.43.74,2.55s-.95-.83-1.62-2.1-1-2.41-.74-2.55S225,157.09,225.61,158.38Z" fill="#263238"/>
      <path id="Path_138" data-name="Path 138" d="M232,155.84c.42,1.38.57,2.55.33,2.63s-.8-1-1.26-2.33-.61-2.54-.34-2.62S231.56,154.47,232,155.84Z" fill="#263238"/>
      <path id="Path_139" data-name="Path 139" d="M238.67,154.33c.2,1.42.17,2.61-.08,2.65s-.65-1.08-.89-2.5-.2-2.6.08-2.65S238.47,152.9,238.67,154.33Z" fill="#263238"/>
      <path id="Path_140" data-name="Path 140" d="M245.52,153.87c0,1.44-.24,2.6-.49,2.6s-.47-1.16-.49-2.6.2-2.6.48-2.61S245.53,152.43,245.52,153.87Z" fill="#263238"/>
      <path id="Path_141" data-name="Path 141" d="M252.36,154.47c-.24,1.42-.64,2.54-.89,2.5s-.29-1.23-.08-2.65.59-2.54.88-2.5S252.6,153.05,252.36,154.47Z" fill="#263238"/>
      <path id="Path_142" data-name="Path 142" d="M259,156.13c-.46,1.36-1,2.4-1.27,2.33s-.09-1.26.33-2.63,1-2.42,1.27-2.33S259.47,154.77,259,156.13Z" fill="#263238"/>
      <path id="Path_143" data-name="Path 143" d="M265.33,158.8c-.67,1.28-1.39,2.22-1.61,2.11s.1-1.25.74-2.55,1.35-2.23,1.61-2.1S266,157.53,265.33,158.8Z" fill="#263238"/>
      <path id="Path_144" data-name="Path 144" d="M271.15,162.44c-.86,1.15-1.72,2-1.92,1.82s.3-1.22,1.12-2.4,1.69-2,1.92-1.82S272,161.28,271.15,162.44Z" fill="#263238"/>
      <path id="Path_145" data-name="Path 145" d="M276.33,166.93c-1,1-2,1.68-2.18,1.5s.49-1.16,1.49-2.19,2-1.71,2.18-1.51S277.36,165.92,276.33,166.93Z" fill="#263238"/>
      <path id="Path_146" data-name="Path 146" d="M280.75,172.17c-1.17.84-2.24,1.35-2.38,1.15s.66-1.07,1.8-1.94,2.22-1.38,2.39-1.14S281.92,171.34,280.75,172.17Z" fill="#263238"/>
      <path id="Path_147" data-name="Path 147" d="M284.3,178c-1.28.64-2.42,1-2.54.76s.82-1,2.09-1.63,2.41-1,2.54-.76S285.59,177.4,284.3,178Z" fill="#263238"/>
      <path id="Path_148" data-name="Path 148" d="M286.88,184.4c-1.37.43-2.55.58-2.62.34s1-.81,2.32-1.28,2.53-.62,2.62-.34S288.25,184,286.88,184.4Z" fill="#263238"/>
      <path id="Path_149" data-name="Path 149" d="M288.42,191.08c-1.42.21-2.61.18-2.65-.07s1.08-.65,2.5-.9,2.6-.21,2.65.08S289.85,190.87,288.42,191.08Z" fill="#263238"/>
      <path id="Path_150" data-name="Path 150" d="M288.89,197.5a7.49,7.49,0,0,1-2.6-.23,7.42,7.42,0,0,1,2.6-.27,6.64,6.64,0,0,1,2.61.24,6.43,6.43,0,0,1-2.61.26Z" fill="#263238"/>
      <circle id="Ellipse_1" data-name="Ellipse 1" cx="2.16" cy="2.16" r="2.16" transform="translate(255.65 144.64)" fill="#abce65"/>
      <path id="Path_153" data-name="Path 153" d="M243.15,184c0-2.43,2-4.18,4.82-4.18s4.78,1.75,4.78,4.18-2,4.2-4.78,4.2S243.15,186.46,243.15,184Zm6.92,0a2.12,2.12,0,1,0-2.1,2.1,2,2,0,0,0,2.1-2.1Z" fill="#263238"/>
      <path id="Path_155" data-name="Path 155" d="M307.22,106.47c0,.14-28.55.26-63.77.26s-63.79-.12-63.79-.26,28.55-.26,63.79-.26S307.22,106.32,307.22,106.47Z" fill="#e0e0e0"/>
      <path id="Path_156" data-name="Path 156" d="M281.15,223.65c0,.15-16.87.26-37.68.26s-37.68-.11-37.68-.26,16.87-.26,37.68-.26S281.15,223.51,281.15,223.65Z" fill="#263238"/>
      <path id="Path_157" data-name="Path 157" d="M281.15,231c0,.15-16.87.26-37.68.26s-37.68-.11-37.68-.26,16.87-.26,37.68-.26S281.15,230.83,281.15,231Z" fill="#263238"/>
      <path id="Path_158" data-name="Path 158" d="M189.28,73.52a.11.11,0,0,1-.08,0l-2.55-2.11a.11.11,0,0,1,0-.09.12.12,0,0,1,0-.1l2.55-2.28a.11.11,0,0,1,.17,0,.13.13,0,0,1,0,.18l-2.44,2.19,2.44,2a.12.12,0,0,1,0,.17A.14.14,0,0,1,189.28,73.52Z" fill="#263238"/>
      <text id="_70" data-name="70" transform="translate(212.64 196.45)" fill="#263238" font-size="24" font-family="SegoeUI-Bold, Segoe UI" font-weight="700"><tspan x="0" y="0">70</tspan></text>
      <text id="F" transform="translate(259.64 196.45)" fill="#263238" font-size="24" font-family="SegoeUI-Bold, Segoe UI" font-weight="700"><tspan x="0" y="0">F</tspan></text>
    </g>
    <g id="freepik--Plant--inject-8">
      <path id="Path_159" data-name="Path 159" d="M72.85,406.31c-.92-3.2-2.89-6.28-5.94-7.6s-6.86-.59-10.11.59-6.44,2.76-9.89,3-7.35-1.43-8.38-4.73c-1-3.1.9-6.41,3.24-8.66a20.46,20.46,0,0,1,33.51,8" fill="#abce65"/>
      <g id="Group_1" data-name="Group 1" opacity="0.5">
        <path id="Path_160" data-name="Path 160" d="M72.85,406.31c-.92-3.2-2.89-6.28-5.94-7.6s-6.86-.59-10.11.59-6.44,2.76-9.89,3-7.35-1.43-8.38-4.73c-1-3.1.9-6.41,3.24-8.66a20.46,20.46,0,0,1,33.51,8"/>
      </g>
      <path id="Path_161" data-name="Path 161" d="M100.2,420.17c5.06-4.81,4.81-13.18,2.28-19.69s-8-11.52-14.19-14.81A45,45,0,0,0,49.1,384.4a18.61,18.61,0,0,1,15,8.83c2.78,4.61,3.39,10.2,5.68,15.07a23.74,23.74,0,0,0,30.38,11.87" fill="#abce65"/>
      <path id="Path_162" data-name="Path 162" d="M102.63,391.27c5.61-6.62,6.36-17.24,5.53-25.87s-2.83-17.33-1.46-25.89c.8-5.08,2.77-9.92,3.44-15s-.28-10.85-4.23-14.14c-4.54-3.78-11.68-2.89-16.4.66s-7.46,9.12-9.46,14.68c-4.39,12.21-6,25.75-2.39,38.21s12.07,23.61,24.49,27.37" fill="#abce65"/>
      <path id="Path_163" data-name="Path 163" d="M105.32,445.57a3.69,3.69,0,0,0,0-.76v-2.19c-.07-1.9-.25-4.64-.68-8a105.108,105.108,0,0,0-2.15-11.73,53.77,53.77,0,0,0-5.36-13.59,56.15,56.15,0,0,0-8.75-11.7,55,55,0,0,0-9.19-7.6,45.7,45.7,0,0,0-3.93-2.39c-1.17-.68-2.26-1.19-3.09-1.61l-2-.85a6.207,6.207,0,0,0-.71-.27,3.59,3.59,0,0,0,.68.35l2,.93c.84.44,1.87,1,3,1.62A40.3,40.3,0,0,1,79,390.21,57.67,57.67,0,0,1,96.71,409.5c5.15,9,6.57,18.5,7.59,25.15.46,3.35.7,6.09.82,8,.06.91.1,1.64.13,2.18a5.689,5.689,0,0,0,.07.74Z" fill="#263238"/>
      <path id="Path_164" data-name="Path 164" d="M153.68,365.16c10.37,6.26,10.34,12,8.61,17.34s-8.1,9.11-13.38,7.1c-3-1.14-5.14-3.74-7-6.34s-3.58-5.4-6.17-7.27-6.33-2.59-8.93-.73" fill="#abce65"/>
      <g id="Group_2" data-name="Group 2" opacity="0.5">
        <path id="Path_165" data-name="Path 165" d="M153.68,365.16c10.37,6.26,10.34,12,8.61,17.34s-8.1,9.11-13.38,7.1c-3-1.14-5.14-3.74-7-6.34s-3.58-5.4-6.17-7.27-6.33-2.59-8.93-.73"/>
      </g>
      <path id="Path_166" data-name="Path 166" d="M161.45,372c-2.72-3.75-9.42-4.84-13.65-3s-7.33,5.58-10.1,9.28-5.47,7.61-9.32,10.19-9.21,3.51-13,.91a11.22,11.22,0,0,1-4.43-7.67,25.78,25.78,0,0,1,.61-9c.92-4.35,2.41-8.89,5.89-11.66,3.88-3.08,9.27-3.22,14.22-3.06,5.68.18,11.45.61,16.78,2.58s10.77,6.22,13,11.44" fill="#abce65"/>
      <path id="Path_167" data-name="Path 167" d="M114,437.26v-.9c0-.62,0-1.48.09-2.57.06-2.27.16-5.5.27-9.47s.29-8.75.58-14,.68-11.08,1.48-17.12a56.162,56.162,0,0,1,1.72-8.69,44.879,44.879,0,0,1,3.18-7.6,43.631,43.631,0,0,1,4-6.3,40.919,40.919,0,0,1,4.38-4.81,32.2,32.2,0,0,1,7.76-5.29c.51-.23,1-.46,1.35-.62l1-.39.62-.25.21-.1-.22.05-.64.21-1,.35c-.41.15-.86.37-1.37.59a31,31,0,0,0-7.91,5.21,40.581,40.581,0,0,0-4.46,4.82,43.67,43.67,0,0,0-4.09,6.33,44.721,44.721,0,0,0-3.23,7.67,54.119,54.119,0,0,0-1.75,8.76c-.8,6.06-1.18,11.88-1.45,17.16s-.39,10-.48,14-.11,7.24-.12,9.48v3.24a.6.6,0,0,0,.08.24Z" fill="#263238"/>
      <path id="Path_168" data-name="Path 168" d="M110.21,442a30,30,0,0,0,1.14-4.46,46.409,46.409,0,0,0,.47-12.51,82.73,82.73,0,0,0-3.95-18.16c-2.13-6.67-5-13.81-7.49-21.48a98.77,98.77,0,0,1-3-11.36,101.93,101.93,0,0,1-1.48-10.85,160.816,160.816,0,0,1-.33-18.54c.18-5.29.46-9.56.64-12.51.08-1.45.15-2.59.2-3.4v-.88a1.23,1.23,0,0,0,0-.31,1.77,1.77,0,0,0,0,.3c0,.23-.05.52-.08.88-.07.81-.17,1.95-.29,3.4-.23,2.95-.56,7.22-.78,12.51a153.274,153.274,0,0,0,.23,18.59A99.827,99.827,0,0,0,97,374.06a97.227,97.227,0,0,0,3,11.42c2.48,7.7,5.38,14.83,7.52,21.47a83.931,83.931,0,0,1,4,18.06,48.37,48.37,0,0,1-.33,12.45c-.25,1.46-.49,2.58-.69,3.33-.09.36-.16.64-.21.86a2.37,2.37,0,0,0-.08.35Z" fill="#263238"/>
      <path id="Path_169" data-name="Path 169" d="M84.5,446.64h48.7l1.11-9.38H84.5Z" fill="#455a64"/>
      <path id="Path_170" data-name="Path 170" d="M127.97,445.57l-6.08,28.12H95.42l-5.7-28.12Z" fill="#455a64"/>
      <path id="Path_171" data-name="Path 171" d="M84.5,446.64c0,.12,10.71.2,23.91.16s23.92-.17,23.92-.3-10.71-.2-23.92-.16S84.5,446.51,84.5,446.64Z" fill="#455a64"/>
      <path id="Path_172" data-name="Path 172" d="M92.86,460.52a19.3,19.3,0,0,1,4.29-2.46,15.269,15.269,0,0,1,5.21-1.05,18.46,18.46,0,0,1,6.41,1.18c2.22.75,4.3,1.62,6.32,2.1a15,15,0,0,0,5.45.17,11.22,11.22,0,0,0,3.51-1.11,5.929,5.929,0,0,0,.84-.54c.19-.14.28-.21.27-.23s-.42.24-1.19.61a12.31,12.31,0,0,1-3.47.94,15.341,15.341,0,0,1-5.32-.25c-2-.49-4-1.37-6.26-2.13a18.229,18.229,0,0,0-6.57-1.17A15,15,0,0,0,97,457.76a13.351,13.351,0,0,0-3.17,1.85,6.854,6.854,0,0,0-.76.65C92.93,460.42,92.85,460.51,92.86,460.52Z" fill="#263238"/>
      <path id="Path_173" data-name="Path 173" d="M93.23,462.4a20.56,20.56,0,0,1,4.12-2.4,14,14,0,0,1,5-1,18.2,18.2,0,0,1,6.21,1.12c2.14.72,4.16,1.55,6.08,2.07a15.461,15.461,0,0,0,5.24.58,8.94,8.94,0,0,0,3.44-.91,6.394,6.394,0,0,0,.82-.52c.18-.14.26-.21.25-.23s-.4.24-1.15.58a9.391,9.391,0,0,1-3.38.76,16.111,16.111,0,0,1-5.11-.68c-1.88-.53-3.88-1.36-6-2.09a17.871,17.871,0,0,0-6.36-1.1,13.58,13.58,0,0,0-5.14,1.16,13.161,13.161,0,0,0-3,1.84c-.33.26-.57.48-.73.63S93.22,462.38,93.23,462.4Z" fill="#fff"/>
      <path id="Path_174" data-name="Path 174" d="M92.37,458.65a23.52,23.52,0,0,1,4.41-2.59,16.219,16.219,0,0,1,5.34-1.29,17.43,17.43,0,0,1,6.62,1.17,59.621,59.621,0,0,0,6.54,2.13,16.32,16.32,0,0,0,5.63,0,12.759,12.759,0,0,0,3.62-1.14,7.531,7.531,0,0,0,.88-.55c.19-.14.28-.22.27-.23s-.43.25-1.23.61a13.91,13.91,0,0,1-3.59,1,16.839,16.839,0,0,1-5.5-.11,66.944,66.944,0,0,1-6.47-2.15,17.13,17.13,0,0,0-6.79-1.15,16.46,16.46,0,0,0-8.7,3.36,7.171,7.171,0,0,0-.78.68C92.45,458.55,92.36,458.64,92.37,458.65Z" fill="#fff"/>
      <path id="Path_175" data-name="Path 175" d="M84.07,446.68c0,.13,11,.23,24.46.23s24.47-.1,24.47-.23-11-.24-24.47-.24S84.07,446.55,84.07,446.68Z" fill="#263238"/>
    </g>
    <g id="freepik--Floor--inject-8">
      <path id="Path_176" data-name="Path 176" d="M470.36,473.69c0,.15-98.67.26-220.35.26s-220.37-.11-220.37-.26,98.65-.26,220.37-.26S470.36,473.55,470.36,473.69Z" fill="#263238"/>
    </g>
    <g id="freepik--Sofa--inject-8">
      <rect id="Rectangle_52" data-name="Rectangle 52" width="11.63" height="45.35" transform="translate(444.04 473.44) rotate(180)" fill="#263238"/>
      <rect id="Rectangle_53" data-name="Rectangle 53" width="11.63" height="45.35" transform="translate(269.44 473.44) rotate(180)" fill="#263238"/>
      <path id="Path_177" data-name="Path 177" d="M233,319.57c2.61-4.52,28.27-18.09,28.27-18.09s4.72-22.12,17.26-26.28c6.12-2,145.15,2,145.15,2,5.65,3.41,9.52,24.28,9.52,24.28,10,2.52,33.49,16.17,34.79,21.83s1.57,109.23-.16,114.88c-8.12,3.39-16,3.84-23.74.78l-184.43-.81s-23.32,8.78-26.66-.48C231.43,433.47,230.34,324.08,233,319.57Z" fill="#abce65"/>
      <path id="Path_178" data-name="Path 178" d="M259.61,397.85c0-.15,40.75-.26,91-.26s91,.11,91,.26-40.74.26-91,.26S259.61,398,259.61,397.85Z" fill="#263238"/>
      <path id="Path_179" data-name="Path 179" d="M453.86,437.22v-2.69c0-1.82-.07-4.48-.12-7.94-.09-6.95-.22-17.09-.38-29.88s-.32-28.27-.53-45.87v-6.7c0-2.26.13-4.56,0-6.87a24.329,24.329,0,0,0-1.34-6.86,26.859,26.859,0,0,0-3.4-6.32,39.621,39.621,0,0,0-10.86-10.14,79.641,79.641,0,0,0-13.9-7.09h-.09v-.09l-4.16-10-2.12-5.09c-.36-.85-.71-1.7-1.07-2.56a10.7,10.7,0,0,0-1.3-2.4,9.82,9.82,0,0,0-6.94-4c-.92-.09-1.89-.11-2.83-.17l-11.52-.6c-15.51-.78-31.57-1.52-48-2.15q-12.49-.47-24.67-.78c-8.12-.18-16.11-.33-23.95-.19-2,0-3.91.09-5.85.2-1,0-1.93.14-2.88.23a12.788,12.788,0,0,0-2.78.54,11.46,11.46,0,0,0-4.59,3.15,24.48,24.48,0,0,0-3.31,4.53,54.167,54.167,0,0,0-4.38,10.21,86.172,86.172,0,0,0-2.68,10.54v.15h-.15a30.259,30.259,0,0,0-7.17,3,51.682,51.682,0,0,0-6.39,4.24,28.73,28.73,0,0,0-5.34,5.22,10.831,10.831,0,0,0-1.66,3.22,18.81,18.81,0,0,0-.66,3.55c-.37,4.83.43,9.56.61,14.19.08,2.34,0,4.6-.05,6.86s0,4.46-.07,6.65c-.14,17.47,0,32.83.08,45.54s0,22.77,0,29.66c-.05,3.43-.09,6.07-.12,7.87V430.5c0-6.88,0-16.94-.11-29.65s-.3-28.06-.19-45.54q0-3.29.06-6.66c0-2.24.12-4.54,0-6.83-.18-4.6-1-9.33-.63-14.24a19.3,19.3,0,0,1,.67-3.66,11.45,11.45,0,0,1,1.72-3.35,29.64,29.64,0,0,1,5.42-5.31,51.59,51.59,0,0,1,6.45-4.29,30.8,30.8,0,0,1,7.29-3.09l-.18.19a86.288,86.288,0,0,1,2.68-10.61,54.47,54.47,0,0,1,4.42-10.31,25.58,25.58,0,0,1,3.37-4.63,12,12,0,0,1,4.8-3.27,13,13,0,0,1,2.88-.57c1-.1,1.94-.19,2.91-.23,1.95-.12,3.91-.18,5.87-.21,7.86-.14,15.85,0,24,.19s16.35.46,24.68.77c16.46.63,32.52,1.38,48,2.16l11.52.61c1,.06,1.89.08,2.86.17a10,10,0,0,1,2.81.7,10.39,10.39,0,0,1,4.49,3.5,11.87,11.87,0,0,1,1.35,2.5c.36.86.71,1.71,1.07,2.56.7,1.71,1.41,3.4,2.11,5.09l4.15,10-.13-.13a81.352,81.352,0,0,1,14,7.15,40.35,40.35,0,0,1,11,10.27,27.518,27.518,0,0,1,3.44,6.43,25.321,25.321,0,0,1,1.36,7c.13,2.34.05,4.65,0,6.91s-.08,4.49,0,6.69c.16,17.59.31,33.06.42,45.86s.19,22.94.24,29.88c0,3.47,0,6.13.05,7.94v2A2.073,2.073,0,0,0,453.86,437.22Z" fill="#263238"/>
      <g id="Group_3" data-name="Group 3" opacity="0.4">
        <path id="Path_180" data-name="Path 180" d="M453.11,441.11c1.56-32.46.24-62.68,0-95.17-.1-11,1.32-19.24-11.24-29.48-6.9-5.62-18.34-10.55-18.34-10.55-3.26-4.59-3.73-12.67-6.8-17.39-4.58-7.06-14.46-7.74-22.88-7.68l-88.66.67c-7.05.05-14.87.41-19.88,5.37-4.65,4.61-5.4,11.77-5.67,18.32q-.53,12.42-.11,24.85c.14,4.08.51,8.54,3.32,11.5,2.33,2.46,5.82,3.6,9.2,3.92,25,2.31,97.73,1.88,129,1.88l22.75,21.41L444,439Z"/>
      </g>
      <path id="Path_181" data-name="Path 181" d="M268,369.05c0-.15,38.59-.26,86.17-.26s86.17.11,86.17.26-38.57.26-86.17.26S268,369.19,268,369.05Z" fill="#263238"/>
      <path id="Path_182" data-name="Path 182" d="M259.61,438.16v-5.09c0-3.35,0-8.23-.05-14.47,0-12.51,0-30.45-.05-52.2v-.09l.06-.06,18.63-19.07.07-.07H421.33l.06.06c5.25,4.63,10.24,9.12,14.91,13.51,2.32,2.21,4.6,4.35,6.64,6.62.25.3.5.58.72.9a3.682,3.682,0,0,1,.32.51,1,1,0,0,1,.1.35v62.35a3.72,3.72,0,0,1,0,.44s0-.15,0-.44V430.1c0-1.17,0-2.88-.05-5.1,0-4.48-.08-11-.14-19.27s-.1-18.31-.16-29.76v-6.88q-.025-.091-.06-.18a4.728,4.728,0,0,0-.29-.44c-.21-.3-.46-.58-.7-.87-2-2.24-4.3-4.38-6.62-6.57-4.67-4.38-9.68-8.86-14.92-13.48l.15.06H278.42l.17-.08c-6.63,6.76-12.92,13.18-18.67,19l.06-.14c-.05,21.75-.09,39.69-.12,52.2,0,6.24-.05,11.12-.07,14.47v3.79A3.78,3.78,0,0,1,259.61,438.16Z" fill="#263238"/>
      <path id="Path_183" data-name="Path 183" d="M423.62,307.9c.14,0-.29,8.84-1,19.74s-1.34,19.71-1.48,19.71.29-8.85,1-19.75S423.48,307.89,423.62,307.9Z" fill="#263238"/>
      <path id="Path_184" data-name="Path 184" d="M234.92,320.92a25.139,25.139,0,0,1,6.65.31,24.821,24.821,0,0,1,6.48,1.56c0,.14-2.93-.54-6.55-1.05S234.91,321.08,234.92,320.92Z" fill="#263238"/>
      <path id="Path_185" data-name="Path 185" d="M263.62,302.39a4.13,4.13,0,0,1,2.61.44,4,4,0,0,1,2.12,1.59,22.331,22.331,0,0,1-2.33-1.11A20.257,20.257,0,0,1,263.62,302.39Z" fill="#263238"/>
      <path id="Path_186" data-name="Path 186" d="M454.4,326.7a23.67,23.67,0,0,1,10.82-5c0,.15-2.54.9-5.52,2.3S454.49,326.83,454.4,326.7Z" fill="#263238"/>
    </g>
    <g id="freepik--Character--inject-8">
      <path id="Path_187" data-name="Path 187" d="M251.53,320.87c2.1-3.8,5.79-6.41,9.35-8.9,6.06-4.22,12.46-8.58,19.81-9.41,7.7-.87,15.43,2.37,21.5,7.19,14.16,11.25,23.95,34,18.17,51.16-12.3,4.3-26.15,7.66-39.15,6.68-5.67-.42-11.53-1.45-16.16-4.76-5.73-4.09-8.65-11-11.3-17.48C250.56,337.48,247.42,328.29,251.53,320.87Z" fill="#f5f5f5"/>
      <path id="Path_188" data-name="Path 188" d="M279.69,363.89a1.778,1.778,0,0,1,.3-.35,11.419,11.419,0,0,1,1-.93,30,30,0,0,1,3.9-3,45.811,45.811,0,0,1,14.93-6.1,91.36,91.36,0,0,1,16.05-1.93c2.06-.09,3.73-.14,4.89-.15h1.33a1.531,1.531,0,0,1,.47,0,12.069,12.069,0,0,1-1.79.17l-4.88.31a104.333,104.333,0,0,0-16,2.08,48.189,48.189,0,0,0-14.86,5.9,37.1,37.1,0,0,0-4,2.83,14.077,14.077,0,0,1-1.34,1.17Z" fill="#abce65"/>
      <path id="Path_189" data-name="Path 189" d="M272.27,365.8a5.27,5.27,0,0,1,1.23-2.72,5.33,5.33,0,0,1,2.19-2,22.546,22.546,0,0,1-1.77,2.33A22.794,22.794,0,0,1,272.27,365.8Z" fill="#abce65"/>
      <path id="Path_190" data-name="Path 190" d="M312.06,336.39a9.43,9.43,0,0,1,7.83-1.29c0,.16-1.81-.08-4,.29S312.13,336.54,312.06,336.39Z" fill="#abce65"/>
      <path id="Path_191" data-name="Path 191" d="M265.71,351.55a2.735,2.735,0,0,1,.3-.36l.93-1c.41-.42.92-.91,1.54-1.46s1.29-1.2,2.1-1.85a67.816,67.816,0,0,1,5.85-4.38,75.6,75.6,0,0,1,7.75-4.47,76.733,76.733,0,0,1,8.26-3.43,68.709,68.709,0,0,1,7-2c1-.25,1.94-.4,2.75-.55s1.52-.26,2.09-.33l1.33-.15a1.2,1.2,0,0,1,.47,0,2.14,2.14,0,0,1-.45.12l-1.31.25c-.58.1-1.27.23-2.07.42s-1.73.34-2.72.62c-2,.48-4.38,1.18-7,2.07a81.279,81.279,0,0,0-8.19,3.44,85.01,85.01,0,0,0-7.72,4.4c-2.27,1.51-4.27,3-5.87,4.27-.83.62-1.52,1.25-2.15,1.78s-1.16,1-1.59,1.39l-1,.88A1.918,1.918,0,0,1,265.71,351.55Z" fill="#abce65"/>
      <path id="Path_192" data-name="Path 192" d="M255.85,350.21a6.47,6.47,0,0,1,2.33-3.12,6.38,6.38,0,0,1,3.62-1.42c.06.17-1.65.61-3.3,1.84S256,350.32,255.85,350.21Z" fill="#abce65"/>
      <path id="Path_193" data-name="Path 193" d="M259.22,339.6a8.579,8.579,0,0,1,.87-1.27,16.5,16.5,0,0,1,1.13-1.42c.47-.54,1-1.17,1.61-1.8a42.678,42.678,0,0,1,4.63-4.21,44.191,44.191,0,0,1,13.48-7.22,42.514,42.514,0,0,1,6.08-1.53c.88-.18,1.68-.25,2.38-.34a17.857,17.857,0,0,1,1.81-.16,8,8,0,0,1,1.55,0,7.909,7.909,0,0,1-1.53.23c-.49.05-1.09.11-1.79.24s-1.49.21-2.35.41a46.836,46.836,0,0,0-6,1.62,51.61,51.61,0,0,0-7,3,50.217,50.217,0,0,0-6.38,4.12,46.708,46.708,0,0,0-4.67,4.09c-.65.61-1.16,1.22-1.65,1.73s-.87,1-1.19,1.36A9.58,9.58,0,0,1,259.22,339.6Z" fill="#abce65"/>
      <path id="Path_194" data-name="Path 194" d="M250.6,337.65a7.7,7.7,0,0,1,5.58-4.33c.05.15-1.47.69-3,1.9S250.73,337.74,250.6,337.65Z" fill="#abce65"/>
      <path id="Path_195" data-name="Path 195" d="M299.76,325.05a6.521,6.521,0,0,1,1.88-1.11A18.58,18.58,0,0,1,312,322.48a6.42,6.42,0,0,1,2.12.54,25.31,25.31,0,0,0-14.33,2Z" fill="#abce65"/>
      <path id="Path_196" data-name="Path 196" d="M280.62,317.49a3.591,3.591,0,0,1,.77-.57c.51-.35,1.27-.81,2.24-1.34a39.371,39.371,0,0,1,8-3.2A38.8,38.8,0,0,1,300.1,311a23.154,23.154,0,0,1,2.61,0,3.211,3.211,0,0,1,1,.1c0,.08-1.36.09-3.53.28a46.15,46.15,0,0,0-16.33,4.55C281.83,316.87,280.67,317.57,280.62,317.49Z" fill="#abce65"/>
      <path id="Path_197" data-name="Path 197" d="M253.24,325.34a10.889,10.889,0,0,1,2.07-1.93,26.861,26.861,0,0,1,5.89-3.49,27.221,27.221,0,0,1,6.57-1.88,10,10,0,0,1,2.82-.18,25.066,25.066,0,0,1-2.76.54,32,32,0,0,0-12.3,5.3,27.646,27.646,0,0,1-2.29,1.64Z" fill="#abce65"/>
      <path id="Path_198" data-name="Path 198" d="M249.86,324.68c-.08-.12.5-.64,1.28-1.16s1.49-.86,1.57-.74-.5.65-1.28,1.17S249.94,324.8,249.86,324.68Z" fill="#abce65"/>
      <path id="Path_199" data-name="Path 199" d="M253.47,318.67a8.458,8.458,0,0,1,1.25-.82c.82-.51,2-1.21,3.52-2.05,3-1.68,7.22-3.88,12-6.1s9.17-4,12.39-5.2c1.61-.61,2.92-1.07,3.84-1.37a6.919,6.919,0,0,1,1.43-.42,8.492,8.492,0,0,1-1.36.61l-3.78,1.52c-3.18,1.29-7.55,3.13-12.3,5.34s-9,4.35-12,5.95l-3.6,1.89A8,8,0,0,1,253.47,318.67Z" fill="#abce65"/>
      <path id="Path_200" data-name="Path 200" d="M288.82,367.6a5,5,0,0,1,1.24-.28l3.4-.6c2.88-.5,6.84-1.23,11.2-2.15s8.27-1.87,11.1-2.57l3.35-.84a6.873,6.873,0,0,1,1.25-.25,6.469,6.469,0,0,1-1.19.44c-.78.26-1.91.6-3.32,1-2.81.8-6.72,1.81-11.09,2.73s-8.35,1.6-11.24,2c-1.45.2-2.62.35-3.43.43a7.088,7.088,0,0,1-1.27.09Z" fill="#263238"/>
      <path id="Path_201" data-name="Path 201" d="M252.29,319.22a2.179,2.179,0,0,1,.16.59l.35,1.71c.14.75.32,1.66.6,2.7s.52,2.24.95,3.53c.2.64.4,1.32.62,2s.51,1.42.77,2.17c.51,1.5,1.21,3.05,1.91,4.7a76.942,76.942,0,0,0,5.63,10.17,77.943,77.943,0,0,0,7.22,9.1c1.26,1.28,2.42,2.52,3.62,3.57.59.53,1.14,1.07,1.7,1.54l1.64,1.36c1,.88,2,1.57,2.89,2.22s1.63,1.18,2.26,1.59l1.45,1a3.425,3.425,0,0,1,.48.37,2.408,2.408,0,0,1-.54-.28l-1.5-.9c-.65-.39-1.44-.88-2.31-1.52s-1.92-1.3-3-2.18l-1.67-1.33c-.58-.47-1.13-1-1.73-1.54-1.22-1-2.4-2.28-3.67-3.55a67.59,67.59,0,0,1-13-19.4c-.69-1.67-1.38-3.23-1.87-4.76-.26-.76-.54-1.48-.75-2.19s-.41-1.4-.59-2c-.41-1.3-.64-2.51-.88-3.57s-.41-2-.52-2.72-.18-1.28-.25-1.73a4.608,4.608,0,0,1,.03-.65Z" fill="#263238"/>
      <path id="Path_202" data-name="Path 202" d="M262.5,355.31a9.76,9.76,0,0,1,2.63-5.45,14.422,14.422,0,0,1-1.28,2.74,14.926,14.926,0,0,1-1.35,2.71Z" fill="#263238"/>
      <path id="Path_203" data-name="Path 203" d="M261.4,351.76c-.12-.08.33-.94,1.18-1.75s1.71-1.23,1.79-1.11-.63.71-1.43,1.49S261.52,351.84,261.4,351.76Z" fill="#263238"/>
      <path id="Path_204" data-name="Path 204" d="M261,325.84a21.69,21.69,0,0,0-3.21,3,14,14,0,0,0-2,3.92,2.44,2.44,0,0,1,.1-1.34,7.909,7.909,0,0,1,1.43-2.9,7,7,0,0,1,3.68-2.68Z" fill="#263238"/>
      <path id="Path_205" data-name="Path 205" d="M258,323.38a30.051,30.051,0,0,1-1.23,3,25.867,25.867,0,0,1-1.12,3,6.54,6.54,0,0,1,.63-3.21,6.42,6.42,0,0,1,1.72-2.79Z" fill="#263238"/>
      <path id="Path_206" data-name="Path 206" d="M284.64,327.48a5.589,5.589,0,0,1,1.26-.27,12,12,0,0,1,1.49-.19,19.833,19.833,0,0,1,2-.1,22.637,22.637,0,0,1,2.42.07,20.539,20.539,0,0,1,2.78.33,30,30,0,0,1,11.79,4.74c.8.57,1.57,1.1,2.23,1.68a21.426,21.426,0,0,1,1.81,1.63,19.511,19.511,0,0,1,1.37,1.46,11.149,11.149,0,0,1,.95,1.17,5.8,5.8,0,0,1,.72,1.07c-.08.06-1.15-1.43-3.3-3.44-.54-.49-1.13-1-1.82-1.55s-1.43-1.07-2.22-1.62a31.5,31.5,0,0,0-11.62-4.67c-.95-.15-1.86-.32-2.72-.37s-1.66-.12-2.4-.14C286.46,327.25,284.65,327.59,284.64,327.48Z" fill="#263238"/>
      <path id="Path_207" data-name="Path 207" d="M275.12,319a6.48,6.48,0,0,1,1.24-.28,11.41,11.41,0,0,1,1.47-.2,16.4,16.4,0,0,1,2-.12,19.7,19.7,0,0,1,2.4.05,25.539,25.539,0,0,1,2.73.3,32.44,32.44,0,0,1,6.08,1.66,31.859,31.859,0,0,1,5.59,2.93c.79.56,1.56,1.07,2.21,1.64a20.716,20.716,0,0,1,1.78,1.6A17.362,17.362,0,0,1,302,328a10.678,10.678,0,0,1,.94,1.15,6.2,6.2,0,0,1,.72,1c-.09.07-1.14-1.4-3.27-3.37-.53-.48-1.12-1-1.8-1.52s-1.42-1-2.21-1.58a30.81,30.81,0,0,0-11.48-4.52c-.94-.14-1.83-.3-2.68-.34a19.816,19.816,0,0,0-2.36-.11C276.91,318.76,275.13,319.11,275.12,319Z" fill="#263238"/>
      <path id="Path_208" data-name="Path 208" d="M278.08,291.23s34.31-32,40.77-39.68c4.28-5.1,12.48-7.22,17.51-8h0l17.81-2.86,37,3.33a.71.71,0,0,1,.37,0h.3v.1c5,2.29,30.33,28.53,30.33,28.53L429.63,253l17.55,3.87-6.8,40.86c-4.36,7.61-11,10.72-18.19,5.83l-24.8-19c-1,12.79-3.38,46.67-1.23,53.53,2.41,7.68-69.67-6.43-69.67-6.43l5.85-52.18-27.64,21.1-.41.51c5.32,6.93,10.18,14.13,11.69,21.5-2.74,4.62-8.32,6.36-15.73,6.25l-23.38-26.19Z" fill="#455a64"/>
      <path id="Path_209" data-name="Path 209" d="M395.15,310.69a1.68,1.68,0,0,1,0-.49c0-.38.05-.85.08-1.4.09-1.3.21-3,.36-5.15.35-4.42.82-10.38,1.34-17s.95-12.56,1.29-17c.14-2.11.25-3.85.34-5.15,0-.55.05-1,.07-1.4a1.651,1.651,0,0,1,.07-.48,2.25,2.25,0,0,1,0,.49c0,.38,0,.84,0,1.4,0,1.22-.07,3-.17,5.16-.21,4.36-.62,10.37-1.15,17s-1.06,12.62-1.48,17c-.22,2.11-.4,3.84-.53,5.13-.07.56-.13,1-.17,1.4a1.85,1.85,0,0,1-.05.49Z" fill="#263238"/>
      <path id="Path_210" data-name="Path 210" d="M335.42,275.06c-.09-.05.79-1.3,1.69-3.55a20.69,20.69,0,0,0-1.29-18.16c-1.2-2.1-2.25-3.2-2.17-3.27a4.3,4.3,0,0,1,.76.75,16.478,16.478,0,0,1,1.73,2.34,19.82,19.82,0,0,1,1.31,18.49,17.614,17.614,0,0,1-1.38,2.55A4.069,4.069,0,0,1,335.42,275.06Z" fill="#263238"/>
      <path id="Path_211" data-name="Path 211" d="M286.92,291.27a2.23,2.23,0,0,1,.79-.25,9.618,9.618,0,0,1,2.24-.17,14.07,14.07,0,0,1,7,2.41,27.33,27.33,0,0,1,5.46,4.95,15.078,15.078,0,0,1,1.89,2.39,20,20,0,0,1-2.16-2.14,32.86,32.86,0,0,0-5.47-4.77,14.93,14.93,0,0,0-6.7-2.47,26.513,26.513,0,0,0-3.05.05Z" fill="#263238"/>
      <path id="Path_212" data-name="Path 212" d="M294.11,285.94a10,10,0,0,1,2.23,1.61,26.12,26.12,0,0,1,7.44,10.81,9.729,9.729,0,0,1,.7,2.65,26.09,26.09,0,0,1-1-2.51,31.31,31.31,0,0,0-7.35-10.68,25.507,25.507,0,0,1-2.02-1.88Z" fill="#263238"/>
      <path id="Path_213" data-name="Path 213" d="M426,292.81a6.119,6.119,0,0,1-.6-.61,14.048,14.048,0,0,1-1.37-1.88,19.242,19.242,0,0,1-1.56-3.09,22.793,22.793,0,0,1-1.15-4.08,22.523,22.523,0,0,1-.29-4.23,19.748,19.748,0,0,1,.43-3.44,15,15,0,0,1,.66-2.23c.2-.51.32-.79.36-.77s-.33,1.17-.66,3.07a22.889,22.889,0,0,0,0,7.51,22.469,22.469,0,0,0,2.52,7.07C425.29,291.81,426.06,292.75,426,292.81Z" fill="#263238"/>
      <path id="Path_214" data-name="Path 214" d="M429.5,231.38l5.35-2.16-.53,3.83-2.26,1.75,1.77,1.82-.92,6.67-4.06-5.13a3.46,3.46,0,0,1-.55-3.28Z" fill="#ffbe9d"/>
      <path id="Path_215" data-name="Path 215" d="M450.93,243.33l-6.51,12.96L432.2,253.6V238.15l18.1-3.1Z" fill="#ffbe9d"/>
      <path id="Path_216" data-name="Path 216" d="M432.89,230.67l1.29-9.34a1.43,1.43,0,0,1,1-1.17l14.65-4.91a1.44,1.44,0,0,1,1.88,1.63l-6,32.25a1.45,1.45,0,0,1-1.13,1.16l-13,2.71a1.45,1.45,0,0,1-1.73-1.63Z" fill="#263238"/>
      <path id="Path_217" data-name="Path 217" d="M443.17,225.7a1.07,1.07,0,1,1-.32-1.48,1.07,1.07,0,0,1,.32,1.48Z" fill="#ebebeb"/>
      <path id="Path_218" data-name="Path 218" d="M451.07,220.17s2.19,0,2,3.1a24.251,24.251,0,0,1-2,8.19,2.61,2.61,0,0,1,0,2.7s1.62-.12,1.53,2.71a3,3,0,0,1-.52,4.32s1.46,1.89-.9,3.82a6.7,6.7,0,0,1-5.56,1Z" fill="#ffbe9d"/>
      <path id="Path_219" data-name="Path 219" d="M450,231.6c-1.74,1.16-3.7,2.27-5.25,3.54-.51.41-1.08.62-1.3,1.24a1.39,1.39,0,0,0,.53,1.71,2,2,0,0,0,1.67-.2,29.36,29.36,0,0,0,5.38-3.63" fill="#ffbe9d"/>
      <path id="Path_220" data-name="Path 220" d="M450.3,235.05c-1.74,1.16-3.71,2.27-5.25,3.54-.51.41-1.08.62-1.31,1.24a1.4,1.4,0,0,0,.54,1.71,2,2,0,0,0,1.66-.2,29,29,0,0,0,5.38-3.63" fill="#ffbe9d"/>
      <path id="Path_221" data-name="Path 221" d="M450.31,238.7c-1.74,1.16-3.71,2.27-5.25,3.54-.51.41-1.08.62-1.3,1.24a1.38,1.38,0,0,0,.53,1.71A2,2,0,0,0,446,245a29.43,29.43,0,0,0,5.39-3.63" fill="#ffbe9d"/>
      <path id="Path_222" data-name="Path 222" d="M450.92,234.36c-.05-.07-1.25.86-2.78,1.9s-2.84,1.8-2.8,1.88A17.66,17.66,0,0,0,450.92,234.36Z" fill="#eb996e"/>
      <path id="Path_223" data-name="Path 223" d="M452.22,237.06c-.05-.07-1.43,1-3.16,2.17a31.317,31.317,0,0,0-3.14,2.22,16.741,16.741,0,0,0,3.32-2,17.159,17.159,0,0,0,2.98-2.39Z" fill="#eb996e"/>
      <path id="Path_224" data-name="Path 224" d="M452.18,241.1a20.571,20.571,0,0,0-3.06,1.77,19.522,19.522,0,0,0-2.9,2,20.362,20.362,0,0,0,3.07-1.77,19.081,19.081,0,0,0,2.89-2Z" fill="#eb996e"/>
      <path id="Path_225" data-name="Path 225" d="M451.45,230.68c-.06-.07-1.56,1.07-3.51,2.33s-3.6,2.18-3.55,2.26a4.479,4.479,0,0,0,1.14-.49,29.869,29.869,0,0,0,2.58-1.51,29.516,29.516,0,0,0,2.43-1.75,4.511,4.511,0,0,0,.91-.84Z" fill="#eb996e"/>
      <path id="Path_226" data-name="Path 226" d="M327.21,445.18l-1.52,19.65s-25.26,5.71-26.12,10.12l46.52,6.2,4.5-34.73Z" fill="#455a64"/>
      <g id="Group_4" data-name="Group 4" opacity="0.6">
        <path id="Path_227" data-name="Path 227" d="M340.34,464.73a1.91,1.91,0,0,1,1,2.34,1.84,1.84,0,0,1-2.31,1,2,2,0,0,1-1.07-2.49,1.91,1.91,0,0,1,2.53-.81" fill="#fff"/>
      </g>
      <g id="Group_5" data-name="Group 5" opacity="0.6">
        <path id="Path_228" data-name="Path 228" d="M346.09,481.15l.37-3.79-44.74-4.53s-2.19.63-2.15,2.12Z" fill="#fff"/>
      </g>
      <path id="Path_229" data-name="Path 229" d="M325,464.49c0,.23,1.1.48,2.12,1.36s1.49,1.92,1.71,1.85.06-1.42-1.19-2.46S324.94,464.27,325,464.49Z" fill="#263238"/>
      <path id="Path_230" data-name="Path 230" d="M319.82,465.86c-.09.21.85.73,1.49,1.79s.73,2.11,1,2.13.54-1.24-.28-2.55S319.85,465.64,319.82,465.86Z" fill="#263238"/>
      <path id="Path_231" data-name="Path 231" d="M316.27,471.33c.2.07.66-1,.25-2.34s-1.42-2-1.54-1.78.45.93.77,2S316,471.28,316.27,471.33Z" fill="#263238"/>
      <path id="Path_232" data-name="Path 232" d="M326.1,459.06c.07.22,1.16.05,2.43.31s2.22.79,2.36.61-.71-1.11-2.21-1.4S326,458.87,326.1,459.06Z" fill="#263238"/>
      <path id="Path_233" data-name="Path 233" d="M326.66,454.21a4.31,4.31,0,0,0,2.34.3,10.73,10.73,0,0,0,2.53-.42,13.363,13.363,0,0,0,1.44-.53,2.94,2.94,0,0,0,.77-.46,1,1,0,0,0,.27-1.19,1.24,1.24,0,0,0-.93-.65,2.941,2.941,0,0,0-.89,0,8.779,8.779,0,0,0-1.51.3,8.1,8.1,0,0,0-2.34,1.13c-1.21.85-1.69,1.65-1.62,1.71s.71-.56,1.92-1.23a9.492,9.492,0,0,1,2.23-.9,8.7,8.7,0,0,1,1.4-.23c.51-.07.93,0,1,.22s0,.13-.08.26a2.872,2.872,0,0,1-.57.33,14.278,14.278,0,0,1-1.33.54,13.527,13.527,0,0,1-2.37.56,16.679,16.679,0,0,0-2.26.26Z" fill="#263238"/>
      <path id="Path_234" data-name="Path 234" d="M326.92,454.58a3.85,3.85,0,0,0,.91-2.17,7.43,7.43,0,0,0,0-2.59,8,8,0,0,0-.4-1.5,1.94,1.94,0,0,0-1.33-1.37,1.09,1.09,0,0,0-1.06.52,3,3,0,0,0-.35.82,5.11,5.11,0,0,0-.21,1.57,5.4,5.4,0,0,0,.67,2.54c.75,1.33,1.66,1.72,1.69,1.65a18.85,18.85,0,0,1-1.18-1.9,5.31,5.31,0,0,1-.45-2.29,4.94,4.94,0,0,1,.22-1.34c.14-.48.38-.86.56-.78a1.714,1.714,0,0,1,.71.87,7.083,7.083,0,0,1,.41,1.34,8.319,8.319,0,0,1,.14,2.38C327.15,453.71,326.8,454.53,326.92,454.58Z" fill="#263238"/>
      <path id="Path_235" data-name="Path 235" d="M350.59,446.42l2.24-15.25-24.88-1.21-.74,15.22Z" fill="#ffbe9d"/>
      <path id="Path_236" data-name="Path 236" d="M396.53,394.53l7.89,18.06s25.73-2.89,28,1l-41.91,21.13-15.66-31.34Z" fill="#455a64"/>
      <g id="Group_6" data-name="Group 6" opacity="0.6">
        <path id="Path_237" data-name="Path 237" d="M390.55,417.31a1.92,1.92,0,0,0-.2,2.55,1.85,1.85,0,0,0,2.52.22,2,2,0,0,0,.2-2.7,1.9,1.9,0,0,0-2.65.06" fill="#fff"/>
      </g>
      <g id="Group_7" data-name="Group 7" opacity="0.6">
        <path id="Path_238" data-name="Path 238" d="M390.51,434.71l-1.6-3.46,40.78-19s2.27-.13,2.73,1.29Z" fill="#fff"/>
      </g>
      <path id="Path_239" data-name="Path 239" d="M405,412c.1.2-.88.81-1.55,2s-.78,2.29-1,2.31-.52-1.32.32-2.72S404.94,411.83,405,412Z" fill="#263238"/>
      <path id="Path_240" data-name="Path 240" d="M410.3,411.64c.15.17-.56,1-.82,2.18s0,2.24-.21,2.33-.92-1-.57-2.5S410.2,411.44,410.3,411.64Z" fill="#263238"/>
      <path id="Path_241" data-name="Path 241" d="M415.45,415.64c-.16.14-1-.74-1-2.13s.69-2.31.86-2.18-.11,1-.06,2.16S415.65,415.52,415.45,415.64Z" fill="#263238"/>
      <path id="Path_242" data-name="Path 242" d="M402.13,407.28c0,.23-1.07.42-2.19,1.08s-1.83,1.49-2,1.36.31-1.28,1.63-2.05S402.15,407.07,402.13,407.28Z" fill="#263238"/>
      <path id="Path_243" data-name="Path 243" d="M400,402.89a4.44,4.44,0,0,1-2.1,1,10.359,10.359,0,0,1-2.54.44,11.382,11.382,0,0,1-1.53,0,2.651,2.651,0,0,1-.88-.17,1,1,0,0,1-.64-1,1.25,1.25,0,0,1,.66-.92,2.9,2.9,0,0,1,.84-.29,8.5,8.5,0,0,1,1.53-.21,8.34,8.34,0,0,1,2.58.29c1.42.42,2.14,1,2.09,1.09s-.85-.29-2.22-.54a9.62,9.62,0,0,0-2.4-.11,8.8,8.8,0,0,0-1.39.24c-.51.11-.89.29-.9.55,0,.1,0,.13.16.21a2.56,2.56,0,0,0,.65.13,14.1,14.1,0,0,0,1.43.07,12.941,12.941,0,0,0,2.42-.24,15.094,15.094,0,0,1,2.24-.54Z" fill="#263238"/>
      <path id="Path_244" data-name="Path 244" d="M399.89,403.31c-.05.07-.83-.46-1.57-1.74a7.561,7.561,0,0,1-.87-2.45,7,7,0,0,1-.11-1.54,1.93,1.93,0,0,1,.8-1.74,1.1,1.1,0,0,1,1.17.15,2.84,2.84,0,0,1,.61.66,5.43,5.43,0,0,1,.91,4c-.27,1.5-1,2.18-1.06,2.12a18.772,18.772,0,0,0,.5-2.19,5.41,5.41,0,0,0-.33-2.3,5.2,5.2,0,0,0-.65-1.2c-.29-.41-.64-.68-.78-.56a1.36,1.36,0,0,0-.39,1.06,8,8,0,0,0,.05,1.4,8.481,8.481,0,0,0,.65,2.3C399.38,402.57,400,403.23,399.89,403.31Z" fill="#263238"/>
      <path id="Path_245" data-name="Path 245" d="M374.85,403.38l-7.12-13.67,23.11-9.31,5.69,14.13Z" fill="#ffbe9d"/>
      <path id="Path_246" data-name="Path 246" d="M325.18,370.85s-9.44-1.75-11.09-5.05,6.75-40,16.82-61.46c11-23.55,34-16.47,39.49-8.18,9.65,14.53,24.73,86.8,24.73,86.8l-26.71,10-27.35-65.5s-5.2-2.89-9.89.66S325.18,370.85,325.18,370.85Z" fill="#263238"/>
      <path id="Path_247" data-name="Path 247" d="M358.21,432.61c-1-.33-35.27,0-35.27,0L325,369.05l2-43.3,25-6.18,29.8,7.85s19.64,7.31,20.62,19.17a128.055,128.055,0,0,1,0,21.42,74.521,74.521,0,0,1-32.3,5.61L363.55,371Z" fill="#263238"/>
      <path id="Path_248" data-name="Path 248" d="M381.75,327.42a2.411,2.411,0,0,1,.19.55c.11.42.26.94.44,1.59.37,1.45.88,3.44,1.51,5.87,1.25,5,2.89,11.86,4.68,19.46s3.46,14.49,4.68,19.46c.6,2.44,1.08,4.43,1.44,5.89.15.65.27,1.19.37,1.61a2.049,2.049,0,0,1,.09.57,3.31,3.31,0,0,1-.19-.54c-.13-.42-.28-.94-.47-1.59-.39-1.37-.93-3.37-1.59-5.85-1.32-4.95-3-11.82-4.84-19.43s-3.36-14.44-4.53-19.49c-.56-2.44-1-4.45-1.35-5.91l-.34-1.62A2,2,0,0,1,381.75,327.42Z" fill="#455a64"/>
      <path id="Path_249" data-name="Path 249" d="M325,395.73a1.649,1.649,0,0,1,0-.39v-5.67c0-3.9,0-9.54.06-16.52s.2-15.29.54-24.51c.21-4.61.39-9.45,1-14.46a19.11,19.11,0,0,1,2.2-7.38,7.14,7.14,0,0,1,2.89-2.77,6.26,6.26,0,0,1,4-.48,8.929,8.929,0,0,1,3.66,1.74,12.069,12.069,0,0,1,2.62,3,47.189,47.189,0,0,1,3.28,7l5.55,13.37c3.53,8.51,6.71,16.19,9.38,22.64l6.28,15.28c.72,1.79,1.29,3.19,1.68,4.17l.43,1.09a2.621,2.621,0,0,1,.13.37,1.511,1.511,0,0,1-.18-.35l-.47-1.07c-.42-1-1-2.36-1.78-4.13L359.8,371.4c-2.7-6.44-5.91-14.1-9.48-22.6q-2.67-6.39-5.58-13.36a47.747,47.747,0,0,0-3.24-6.87,11.52,11.52,0,0,0-2.5-2.87,8.17,8.17,0,0,0-3.44-1.63,5.67,5.67,0,0,0-3.7.42,6.72,6.72,0,0,0-2.68,2.58,18.77,18.77,0,0,0-2.14,7.19c-.62,4.95-.8,9.8-1,14.4-.37,9.21-.53,17.52-.65,24.49s-.18,12.59-.23,16.52c0,1.93-.05,3.44-.06,4.5v1.17a1.931,1.931,0,0,1-.1.39Z" fill="#455a64"/>
      <path id="Path_250" data-name="Path 250" d="M390.91,184.32c-3.67-1.41-7.82,1.66-11.61.63-2.3-.63-3.93-2.63-5.92-3.94a12,12,0,0,0-10.65-1.18c-3.29,1.39-5.46,3-6.14,6.46-2.77-1.87-7.85,1.42-9.75,4.81s-1.75,7-1.09,10.87a51.29,51.29,0,0,0,7.15,18.6c.32.5.84,1.07,1.39.85.38-.14.54-.59.63-1,.8-3.4.62-6.94.58-10.43s.06-7.08,1.4-10.3,4.14-6.06,7.6-6.48a11,11,0,0,1,7.27,2.11c2.15,1.43,4,3.25,6,4.84a14.29,14.29,0,0,0,6.91,3.27,6.708,6.708,0,0,0,6.67-3c1.27-2.29.27-5.65-2.21-6.36a5.07,5.07,0,0,0,1.74-9.8Z" fill="#263238"/>
      <path id="Path_251" data-name="Path 251" d="M351.08,203.42l.9,39.13c.16,6.66,6.7,12.28,13.34,11.8h0c6.2-.45,10.1-6.15,9.95-12.36-.08-2.94-.13-5.4-.12-5.7,0,0,9.94-1.17,10.44-11,.23-4.77-.08-14.64-.46-23.57a18.44,18.44,0,0,0-17.73-17.6h-.95C356.15,184.25,350.58,193.12,351.08,203.42Z" fill="#ffbe9d"/>
      <path id="Path_252" data-name="Path 252" d="M375.18,236.15A23,23,0,0,1,362.43,232s2.78,7.23,12.67,6.71Z" fill="#eb996e"/>
      <path id="Path_253" data-name="Path 253" d="M382.1,209.08a1.42,1.42,0,0,1-1.42,1.38,1.36,1.36,0,0,1-1.4-1.33,1.42,1.42,0,0,1,1.41-1.38,1.36,1.36,0,0,1,1.41,1.33Z" fill="#263238"/>
      <path id="Path_254" data-name="Path 254" d="M382.82,206.44c-.18.18-1.22-.65-2.74-.7s-2.66.66-2.82.47.12-.41.61-.75a3.93,3.93,0,0,1,2.27-.6,3.74,3.74,0,0,1,2.17.79C382.77,206,382.91,206.37,382.82,206.44Z" fill="#263238"/>
      <path id="Path_255" data-name="Path 255" d="M367.62,209.08a1.42,1.42,0,0,1-1.41,1.38,1.36,1.36,0,0,1-1.41-1.33,1.42,1.42,0,0,1,1.42-1.38,1.35,1.35,0,0,1,1.4,1.33Z" fill="#263238"/>
      <path id="Path_256" data-name="Path 256" d="M367.88,206.17c-.18.18-1.22-.65-2.74-.71s-2.66.67-2.81.48.11-.41.61-.75a4,4,0,0,1,2.26-.61,3.71,3.71,0,0,1,2.17.8C367.83,205.75,368,206.09,367.88,206.17Z" fill="#263238"/>
      <path id="Path_257" data-name="Path 257" d="M373,217.64a9.82,9.82,0,0,1,2.49-.36c.39,0,.76-.08.83-.35a2,2,0,0,0-.21-1.16l-1-3c-1.44-4.26-2.46-7.76-2.29-7.82s1.48,3.35,2.91,7.62c.35,1,.68,2,1,3a2.24,2.24,0,0,1,.15,1.53,1,1,0,0,1-.66.54,2.779,2.779,0,0,1-.67.07,10.691,10.691,0,0,1-2.55-.07Z" fill="#263238"/>
      <path id="Path_258" data-name="Path 258" d="M368.47,218.52c.24,0,.19,1.64,1.55,2.87s3.13,1.1,3.14,1.33-.41.31-1.15.3a4.08,4.08,0,0,1-2.62-1,3.59,3.59,0,0,1-1.2-2.4C368.16,218.91,368.35,218.51,368.47,218.52Z" fill="#263238"/>
      <path id="Path_259" data-name="Path 259" d="M368.5,200.23c-.17.41-1.68.16-3.46.31s-3.25.58-3.48.2c-.09-.18.17-.56.77-.94a6,6,0,0,1,5.28-.38C368.25,199.7,368.57,200,368.5,200.23Z" fill="#263238"/>
      <path id="Path_260" data-name="Path 260" d="M382.43,202c-.28.33-1.32-.06-2.57-.13s-2.33.15-2.57-.22c-.1-.18.08-.52.56-.83a3.73,3.73,0,0,1,4.14.28C382.42,201.5,382.55,201.86,382.43,202Z" fill="#263238"/>
      <path id="Path_261" data-name="Path 261" d="M351.61,210.76c-.16-.07-6.71-2.26-6.75,4.51s6.76,5.4,6.77,5.21S351.61,210.76,351.61,210.76Z" fill="#ffbe9d"/>
      <path id="Path_262" data-name="Path 262" d="M349.58,217.9a1.84,1.84,0,0,1-.32.18,1.23,1.23,0,0,1-.88,0,2.9,2.9,0,0,1-1.33-2.62,3.841,3.841,0,0,1,.34-1.69,1.37,1.37,0,0,1,.89-.9.6.6,0,0,1,.69.33c.09.19,0,.32.08.33s.15-.11.1-.39a.77.77,0,0,0-.27-.42.88.88,0,0,0-.65-.18,1.64,1.64,0,0,0-1.23,1,3.87,3.87,0,0,0-.42,1.89,3,3,0,0,0,1.7,2.93,1.28,1.28,0,0,0,1.08-.18C349.57,218.07,349.61,217.92,349.58,217.9Z" fill="#eb996e"/>
      <path id="Path_263" data-name="Path 263" d="M387.29,199.7a14.28,14.28,0,0,1-12.57-3.33c-2.32-2.13-4.07-5.13-7.05-6.17a8.07,8.07,0,0,0-6.17.61,15.54,15.54,0,0,0-4.81,4.11c1.72,5.09.23,10.65-1.26,15.81a2.74,2.74,0,0,1-.85,1.53c-.82.59-2,.06-2.67-.69a8.42,8.42,0,0,1-1.67-4.48,27.85,27.85,0,0,1,.48-11,19,19,0,0,1,5.55-9.36A18,18,0,0,1,369,182.5a22.08,22.08,0,0,1,12.6,5,13,13,0,0,1,4,4.94" fill="#263238"/>
      <path id="Path_264" data-name="Path 264" d="M393.65,186.81a1.29,1.29,0,0,1-.08.58,2.77,2.77,0,0,1-1,1.36,4.32,4.32,0,0,1-2.56.75,7,7,0,0,1-1.67-.17,3.53,3.53,0,0,1-1.7-.86,2.39,2.39,0,0,1-.77-1.94,2.11,2.11,0,0,1,1.5-1.67,2.63,2.63,0,0,1,1.22-.11,2.17,2.17,0,0,1,1.14.57,3.09,3.09,0,0,1,.92,2.4,3.57,3.57,0,0,1-1.16,2.44,5.45,5.45,0,0,1-2.5,1.29,8.85,8.85,0,0,1-5.75-.84,25.239,25.239,0,0,1-4.88-3.2,32.511,32.511,0,0,0-4.42-3.06,10.12,10.12,0,0,0-4.6-1.3,9.45,9.45,0,0,0-4.08.89,12,12,0,0,0-4.64,3.9,13.892,13.892,0,0,0-.91,1.41,5.64,5.64,0,0,1-.3.5.329.329,0,0,1,.05-.14c.05-.09.1-.23.19-.4a13,13,0,0,1,.87-1.44,11.8,11.8,0,0,1,4.64-4.05,9.71,9.71,0,0,1,4.18-.95,10.24,10.24,0,0,1,4.74,1.31,32.439,32.439,0,0,1,4.48,3.07,26,26,0,0,0,4.83,3.16,8.62,8.62,0,0,0,5.53.82,5,5,0,0,0,2.35-1.21,3.22,3.22,0,0,0,1.07-2.22,2.77,2.77,0,0,0-.81-2.17,2,2,0,0,0-2.07-.4,1.81,1.81,0,0,0-1.33,1.43,2.14,2.14,0,0,0,.68,1.74,3.41,3.41,0,0,0,1.58.83,7.179,7.179,0,0,0,1.62.18,4.22,4.22,0,0,0,2.48-.66,2.78,2.78,0,0,0,1-1.28A3.946,3.946,0,0,0,393.65,186.81Z" fill="#455a64"/>
      <path id="Path_265" data-name="Path 265" d="M345.42,196.87a11.42,11.42,0,0,0,2,.61,5.89,5.89,0,0,0,2.28-.15,9.849,9.849,0,0,0,2.57-1.12,7.82,7.82,0,0,0,3.16-3.91,15.407,15.407,0,0,0,.53-2.08,1.71,1.71,0,0,1,0,.59,6.809,6.809,0,0,1-.32,1.56,7.67,7.67,0,0,1-3.21,4.12,9.2,9.2,0,0,1-2.68,1.14,5.73,5.73,0,0,1-2.38.09,5.24,5.24,0,0,1-1.52-.53,1.71,1.71,0,0,1-.43-.32Z" fill="#455a64"/>
      <path id="Path_266" data-name="Path 266" d="M345.53,201.77c0-.06.8.14,2.07.12a9.58,9.58,0,0,0,4.72-1.35,9.44,9.44,0,0,0,3.36-3.57c.61-1.12.79-1.91.85-1.89a1.831,1.831,0,0,1-.1.56,7.521,7.521,0,0,1-.54,1.44,9,9,0,0,1-3.4,3.74,9.16,9.16,0,0,1-4.89,1.31,7.41,7.41,0,0,1-1.53-.19A1.76,1.76,0,0,1,345.53,201.77Z" fill="#455a64"/>
      <path id="Path_267" data-name="Path 267" d="M362.6,212.44a.19.19,0,0,1-.2-.16.17.17,0,0,1,.14-.2.16.16,0,0,1,.19.15.18.18,0,0,1-.13.21Z" fill="#eb996e"/>
      <path id="Path_268" data-name="Path 268" d="M365.52,211.89a.2.2,0,0,1-.2-.18.21.21,0,0,1,.14-.24.22.22,0,0,1,.06.42Z" fill="#eb996e"/>
      <path id="Path_269" data-name="Path 269" d="M367.48,211.91c-.09,0-.18-.11-.19-.26s0-.28.14-.28.18.1.19.25S367.57,211.9,367.48,211.91Z" fill="#eb996e"/>
      <path id="Path_270" data-name="Path 270" d="M364,214.31c-.1,0-.17-.05-.17-.11s.08-.11.17-.1.17.05.17.11S364.05,214.32,364,214.31Z" fill="#eb996e"/>
      <path id="Path_271" data-name="Path 271" d="M366.64,213.79a.18.18,0,0,1-.18-.18.17.17,0,0,1,.34,0,.18.18,0,0,1-.16.18Z" fill="#eb996e"/>
      <path id="Path_272" data-name="Path 272" d="M380.55,212.66a.19.19,0,0,1-.2-.16.2.2,0,0,1,.14-.22.194.194,0,0,1,.06.38Z" fill="#eb996e"/>
      <path id="Path_273" data-name="Path 273" d="M382.53,212.55a.2.2,0,0,1-.18-.2.19.19,0,0,1,.16-.22.2.2,0,0,1,.18.2A.184.184,0,0,1,382.53,212.55Z" fill="#eb996e"/>
      <path id="Path_274" data-name="Path 274" d="M378.8,212.64a.15.15,0,1,1-.05-.29.16.16,0,0,1,.19.12.15.15,0,0,1-.14.17Z" fill="#eb996e"/>
      <path id="Path_275" data-name="Path 275" d="M380.19,214.67a.2.2,0,1,1,.09-.24.18.18,0,0,1-.09.24Z" fill="#eb996e"/>
      <path id="Path_276" data-name="Path 276" d="M381.89,214.4a.16.16,0,0,1-.11-.19.15.15,0,0,1,.2-.08.16.16,0,0,1,.12.19.17.17,0,0,1-.21.08Z" fill="#eb996e"/>
      <path id="Path_277" data-name="Path 277" d="M346.81,219.64a3.88,3.88,0,0,0-.24,1.52,2.24,2.24,0,0,0,.68,1.45,2,2,0,0,0,1.8.54,1.87,1.87,0,0,0,1.37-1.26,2.44,2.44,0,0,0-.22-1.58,3.16,3.16,0,0,0-.95-1.22c0-.06.68.18,1.16,1.11a2.56,2.56,0,0,1,.31,1.77,2.16,2.16,0,0,1-1.59,1.51,2.27,2.27,0,0,1-2.09-.65,2.38,2.38,0,0,1-.71-1.65,2.7,2.7,0,0,1,.23-1.18C346.69,219.75,346.79,219.63,346.81,219.64Z" fill="#263238"/>
      <path id="Path_278" data-name="Path 278" d="M346.87,218.49a.714.714,0,0,1,.36.48.99.99,0,0,1-.72,1.22.93.93,0,0,1-.83-.23.74.74,0,0,1-.22-.67c.07-.41.36-.51.36-.47a1.124,1.124,0,0,0-.13.49.53.53,0,0,0,.2.42.66.66,0,0,0,.55.14.77.77,0,0,0,.46-.36.92.92,0,0,0,.1-.5C347,218.7,346.83,218.53,346.87,218.49Z" fill="#263238"/>
      <path id="Path_279" data-name="Path 279" d="M319.41,331c-1.8-3.78-7.73-12.35-7.73-12.35-5.69-.29-7.6,1.46-9.93,4.76,0,0,.6,11.15.6,11.42S304.41,346,304.41,346a2.58,2.58,0,0,0,1.86,1.73c1.52.4-.37-9.16-.37-9.16l2.39,6.48-.05.47s.08,5,.75,6.06a1.9,1.9,0,0,0,1.92,1.06c.32,0,.39-3.87.6-7.37l-.93-5.64,2.26,5.38s-.33,5.85.3,7.19,2.64,1.36,2.64.62.09-3.32.19-5.66a45.288,45.288,0,0,0-.63-6.73l1.73,5.49.68,5.06c.4.26,1.7.89,2.06.07a37.917,37.917,0,0,0,.46-4.92c-.07-1.46-.66-5.57-.66-5.57a5.8,5.8,0,0,0,3.05,2.22c1.86.42,2.13-.36,2.13-.36Z" fill="#ffbe9d"/>
      <path id="Path_280" data-name="Path 280" d="M318.46,335.73a23.362,23.362,0,0,1,1.42,5.34,23.729,23.729,0,0,1,.63,5.48,39.146,39.146,0,0,1-1.15-5.39,40.066,40.066,0,0,1-.9-5.43Z" fill="#eb996e"/>
      <path id="Path_281" data-name="Path 281" d="M316,322.58a3.5,3.5,0,0,1-.6-.71,11.8,11.8,0,0,0-1.66-1.82,5.24,5.24,0,0,0-3.26-1.31,7.75,7.75,0,0,0-4.21,1.08,14.09,14.09,0,0,0-5.7,5.64,9.06,9.06,0,0,0-.75,3.27,2.09,2.09,0,0,1-.12-.92,6.54,6.54,0,0,1,.54-2.49,13.61,13.61,0,0,1,5.77-6,8.06,8.06,0,0,1,4.5-1.1,5.53,5.53,0,0,1,3.48,1.51,10,10,0,0,1,1.58,2A2.861,2.861,0,0,1,316,322.58Z" fill="#263238"/>
    </g>
  </g>
</svg>
