<?xml version="1.0" standalone="no"?>
<!DOCTYPE svg PUBLIC "-//W3C//DTD SVG 20010904//EN"
 "http://www.w3.org/TR/2001/REC-SVG-20010904/DTD/svg10.dtd">
<svg version="1.0" xmlns="http://www.w3.org/2000/svg"
 width="512.000000pt" height="512.000000pt" viewBox="0 0 512.000000 512.000000"
 preserveAspectRatio="xMidYMid meet">

<g transform="translate(0.000000,512.000000) scale(0.100000,-0.100000)"
fill="#000000" stroke="none">
<path d="M2390 5114 c-357 -27 -712 -128 -1020 -291 -611 -322 -1074 -888
-1265 -1544 -71 -244 -99 -448 -99 -719 0 -271 28 -475 99 -719 198 -682 689
-1263 1330 -1576 83 -40 188 -87 235 -104 517 -186 1056 -208 1575 -65 698
193 1290 685 1610 1339 112 228 184 450 224 685 111 650 -28 1311 -387 1850
-415 623 -1047 1019 -1792 1125 -107 15 -410 26 -510 19z m627 -890 c69 -56
77 -79 81 -246 l4 -148 277 0 c171 0 291 -4 316 -11 52 -15 119 -82 134 -134
6 -22 11 -106 11 -187 l0 -148 -70 0 -70 0 -2 -1157 -3 -1158 -22 -41 c-29
-54 -93 -110 -140 -123 -53 -15 -1893 -15 -1946 0 -47 13 -111 69 -140 123
l-22 41 -3 1158 -2 1157 -70 0 -70 0 0 148 c0 81 5 165 11 187 15 52 82 119
134 134 25 7 145 11 316 11 l277 0 4 148 c5 156 12 185 60 229 58 54 51 53
490 51 l406 -3 39 -31z"/>
<path d="M2187 4093 c-4 -3 -7 -64 -7 -135 l0 -128 380 0 381 0 -3 133 -3 132
-371 3 c-204 1 -373 -1 -377 -5z"/>
</g>
</svg>
