<?xml version="1.0" standalone="no"?>
<!DOCTYPE svg PUBLIC "-//W3C//DTD SVG 20010904//EN"
 "http://www.w3.org/TR/2001/REC-SVG-20010904/DTD/svg10.dtd">
<svg version="1.0" xmlns="http://www.w3.org/2000/svg"
 width="512.000000pt" height="512.000000pt" viewBox="0 0 512.000000 512.000000"
 preserveAspectRatio="xMidYMid meet">

<g transform="translate(0.000000,512.000000) scale(0.100000,-0.100000)"
fill="#000000" stroke="none">
<path d="M2371 5109 c-617 -47 -1177 -305 -1616 -744 -488 -487 -748 -1115
-748 -1805 0 -690 260 -1318 748 -1805 405 -406 908 -653 1485 -731 191 -26
515 -24 695 4 433 68 821 231 1174 495 124 92 396 364 488 488 214 286 365
604 448 939 53 216 70 364 70 610 0 413 -79 758 -255 1118 -135 276 -266 458
-495 687 -232 233 -415 363 -699 501 -413 199 -836 278 -1295 243z m332 -702
c68 -31 135 -95 168 -162 l24 -50 3 -597 c2 -591 2 -597 -19 -654 -26 -70
-100 -148 -174 -184 -42 -21 -65 -25 -145 -25 -81 0 -103 4 -145 25 -64 31
-134 101 -165 165 l-25 50 -3 594 c-3 658 -4 642 62 731 94 129 272 174 419
107z m-1390 -823 c97 -34 180 -125 211 -233 28 -97 18 -156 -58 -328 -106
-237 -124 -531 -50 -791 47 -167 152 -351 275 -486 127 -139 353 -277 540
-330 689 -195 1388 251 1505 959 19 119 14 318 -11 435 -16 74 -55 181 -111
310 -24 54 -29 79 -28 145 0 67 5 90 29 139 87 182 288 250 472 160 68 -33
120 -93 171 -198 211 -437 239 -959 75 -1430 -46 -133 -157 -347 -241 -466
-93 -132 -311 -348 -445 -443 -672 -473 -1558 -460 -2217 32 -102 76 -258 228
-340 331 -406 510 -518 1187 -300 1805 43 121 112 257 156 305 85 94 239 129
367 84z"/>
</g>
</svg>
