<?xml version="1.0" ?><svg id="Layer_1" style="enable-background:new 0 0 48 48;" version="1.1" viewBox="0 0 48 48" xml:space="preserve" xmlns="http://www.w3.org/2000/svg" xmlns:xlink="http://www.w3.org/1999/xlink"><g><polygon points="18.7,8.7 15.4,8.7 15.4,5.4 13.4,5.4 13.4,8.7 10.2,8.7 10.2,10.7 13.4,10.7 13.4,13.9 15.4,13.9 15.4,10.7    18.7,10.7  "/><path d="M26.8,32.7c-2.1,0-3.8,1.7-3.8,3.8c0,2.1,1.7,3.8,3.8,3.8c2.1,0,3.8-1.7,3.8-3.8C30.6,34.4,28.9,32.7,26.8,32.7z"/><path d="M32.6,27.1v-1.4h4.2v-2h-4.2v-3.7h4.2v-2h-4.2v-3.7h4.2v-2h-4.2V8.7h4.2v-2h-4.2V6.3c0-3.2-2.6-5.8-5.8-5.8   c-3.2,0-5.8,2.6-5.8,5.8v20.8c-3.2,2-5.2,5.5-5.2,9.4c0,6.1,4.9,11,11,11c6.1,0,11-4.9,11-11C37.8,32.7,35.8,29.1,32.6,27.1z    M26.8,42.3c-3.2,0-5.8-2.6-5.8-5.8c0-2.9,2.1-5.3,4.8-5.7v-23h2v23c2.7,0.5,4.8,2.9,4.8,5.7C32.6,39.7,30,42.3,26.8,42.3z"/></g></svg>